<?xml version="1.0" encoding="utf-8"?>
<!-- Generator: Adobe Illustrator 21.0.0, SVG Export Plug-In . SVG Version: 6.00 Build 0)  -->
<svg version="1.1" id="Layer_1" xmlns="http://www.w3.org/2000/svg" xmlns:xlink="http://www.w3.org/1999/xlink" x="0px" y="0px"
	 viewBox="0 0 54 276" style="enable-background:new 0 0 54 276;" xml:space="preserve">
<g>
	<path d="M0.6,243.8c0-1,0.3-1.7,0.8-2.3c0.5-0.5,1.1-0.9,1.6-1.1l46.6-16.1c0.5-0.2,0.9-0.3,1.1-0.3c0.4,0,0.8,0.2,1.1,0.5
		c0.3,0.3,0.5,0.7,0.5,1.1v9.3c0,1-0.2,1.7-0.6,2.1s-0.8,0.7-1.2,0.8l-6.1,2.1v19.7l6.1,2.1c0.4,0.1,0.8,0.4,1.2,0.8
		c0.4,0.4,0.6,1.1,0.6,2.1v9.3c0,0.4-0.2,0.8-0.5,1.1c-0.3,0.3-0.7,0.5-1.1,0.5c-0.2,0-0.6-0.1-1.1-0.3L3.1,259.2
		c-0.5-0.2-1.1-0.6-1.6-1.1c-0.5-0.5-0.8-1.3-0.8-2.3V243.8z M32.9,255.8v-12l-17.8,6L32.9,255.8z" fill="#111111"/>
	<path d="M52.4,216.1c0,0.5-0.2,1-0.6,1.4s-0.9,0.6-1.4,0.6H2.6c-0.5,0-1-0.2-1.4-0.6c-0.4-0.4-0.6-0.9-0.6-1.4v-23.8
		c0-3.3,0.5-6.1,1.4-8.4c0.9-2.3,2.1-4.1,3.6-5.4c1.5-1.4,3.1-2.3,5-2.9s3.7-0.9,5.5-0.9c1.4,0,2.7,0.2,3.7,0.5
		c1.1,0.3,2,0.7,2.7,1.1c0.8,0.4,1.4,0.9,1.9,1.4c0.5,0.5,0.8,0.9,1.1,1.1c1.3-1.9,2.9-3.3,4.6-4s3.9-1.1,6.3-1.1c2,0,4,0.3,5.9,0.9
		c1.9,0.6,3.6,1.6,5.1,2.9c1.5,1.4,2.7,3.1,3.6,5.3c0.9,2.2,1.4,4.8,1.4,8V216.1z M16.3,188.4c-1.3,0-2.3,0.4-3.1,1.1
		c-0.8,0.8-1.1,1.9-1.1,3.4v11.5h8.4v-11.5c0-1.5-0.4-2.6-1.1-3.4C18.6,188.8,17.6,188.4,16.3,188.4z M40.9,204.4v-12.2
		c0-1.5-0.4-2.7-1.3-3.6c-0.9-0.9-1.9-1.3-3.2-1.3c-1.3,0-2.4,0.4-3.2,1.3c-0.9,0.9-1.3,2.1-1.3,3.6v12.2H40.9z" fill="#111111"/>
	<path d="M19.9,167.1c-2.8-0.1-5.4-0.8-7.8-1.8c-2.4-1.1-4.6-2.6-6.4-4.5c-1.8-1.9-3.2-4.3-4.3-7.1c-1.1-2.8-1.6-6-1.6-9.7
		c0-3.6,0.5-6.8,1.6-9.6c1.1-2.8,2.5-5.2,4.3-7.1c1.8-1.9,3.9-3.5,6.4-4.5c2.4-1.1,5-1.7,7.8-1.8c2.1-0.1,4.3-0.1,6.7-0.1
		c2.3,0,4.5,0,6.5,0.1c2.8,0.1,5.4,0.8,7.8,1.8c2.4,1.1,4.6,2.6,6.4,4.5c1.8,1.9,3.3,4.3,4.3,7.1s1.6,6,1.6,9.6
		c0,3.7-0.5,6.9-1.6,9.7c-1,2.8-2.5,5.2-4.3,7.1c-1.8,1.9-4,3.5-6.4,4.5c-2.4,1.1-5,1.7-7.8,1.8c-2,0.1-4.2,0.1-6.5,0.1
		C24.3,167.3,22,167.2,19.9,167.1z M32.7,134.6c-0.9,0-1.9-0.1-3-0.1c-1.1,0-2.2-0.1-3.3-0.1c-1.1,0-2.2,0-3.3,0.1
		c-1.1,0-2,0.1-2.8,0.1c-1.2,0.1-2.4,0.4-3.4,0.8c-1,0.4-1.9,1-2.7,1.8c-0.8,0.8-1.4,1.7-1.8,2.8c-0.4,1.1-0.7,2.5-0.7,4
		c0,1.5,0.2,2.9,0.7,4c0.4,1.1,1,2.1,1.8,2.8c0.8,0.8,1.7,1.4,2.7,1.8c1,0.4,2.2,0.7,3.4,0.8c0.8,0.1,1.8,0.2,2.8,0.2
		c1.1,0,2.2,0,3.3,0c1.1,0,2.2,0,3.3,0c1.1,0,2.1-0.1,3-0.2c2.5-0.2,4.5-1,6.1-2.6c1.6-1.5,2.4-3.8,2.4-6.8c0-3.1-0.8-5.3-2.4-6.8
		S35.2,134.9,32.7,134.6z" fill="#111111"/>
	<path d="M0.6,69.8c0-0.5,0.2-1,0.6-1.4c0.4-0.4,0.9-0.6,1.4-0.6h29.5c3.4,0,6.4,0.5,9,1.6c2.6,1.1,4.8,2.6,6.6,4.6
		c1.8,2,3.1,4.4,4,7.1c0.9,2.8,1.4,5.8,1.4,9.1c0,3.4-0.5,6.4-1.4,9.2c-0.9,2.8-2.3,5.1-4,7.1c-1.8,2-4,3.5-6.6,4.6
		c-2.6,1.1-5.6,1.6-9,1.6H2.6c-0.5,0-1-0.2-1.4-0.6c-0.4-0.4-0.6-0.9-0.6-1.4v-9.7c0-0.5,0.2-1,0.6-1.4c0.4-0.4,0.9-0.6,1.4-0.6
		h29.2c3,0,5.3-0.7,7-2.2c1.7-1.5,2.5-3.7,2.5-6.6s-0.8-5.2-2.5-6.6c-1.7-1.5-4-2.2-7-2.2H2.6c-0.5,0-1-0.2-1.4-0.6
		c-0.4-0.4-0.6-0.9-0.6-1.4V69.8z" fill="#111111"/>
	<path d="M0.6,19.9c0-0.5,0.2-1,0.6-1.4c0.4-0.4,0.9-0.6,1.4-0.6h7.8c0.5,0,1,0.2,1.4,0.6c0.4,0.4,0.6,0.9,0.6,1.4v13h38
		c0.5,0,1,0.2,1.4,0.6c0.4,0.4,0.6,0.9,0.6,1.4v9.7c0,0.5-0.2,1-0.6,1.4c-0.4,0.4-0.9,0.6-1.4,0.6h-38v13c0,0.5-0.2,1-0.6,1.4
		c-0.4,0.4-0.9,0.6-1.4,0.6H2.6c-0.5,0-1-0.2-1.4-0.6c-0.4-0.4-0.6-0.9-0.6-1.4V19.9z" fill="#111111"/>
	<path d="M50.4,3.5c0.5,0,1,0.2,1.4,0.6c0.4,0.4,0.6,0.9,0.6,1.4v9.7c0,0.5-0.2,1-0.6,1.4c-0.4,0.4-0.9,0.6-1.4,0.6h-9.7
		c-0.5,0-1-0.2-1.4-0.6c-0.4-0.4-0.6-0.9-0.6-1.4V5.5c0-0.5,0.2-1,0.6-1.4c0.4-0.4,0.9-0.6,1.4-0.6H50.4z" fill="#111111"/>
</g>
</svg>
