<?xml version="1.0" encoding="utf-8"?>
<!-- Generator: Adobe Illustrator 21.0.0, SVG Export Plug-In . SVG Version: 6.00 Build 0)  -->
<svg version="1.1" id="Layer_1" xmlns="http://www.w3.org/2000/svg" xmlns:xlink="http://www.w3.org/1999/xlink" x="0px" y="0px"
	 viewBox="0 0 870 300" style="enable-background:new 0 0 870 300;" xml:space="preserve">
<style type="text/css">
	.st0{fill:none;stroke:#231F20;stroke-width:5;stroke-miterlimit:10;}
	.st1{fill:#231F20;}
	.st2{fill:#FFFFFF;}
</style>
<g>
	<path d="M77.1,45.5c0.4,0,0.7,0.1,1,0.4c0.3,0.3,0.4,0.6,0.4,1v32.3c0,0.4-0.1,0.7-0.4,1c-0.3,0.3-0.6,0.4-1,0.4h-6.5
		c-0.4,0-0.7-0.1-1-0.4c-0.3-0.3-0.4-0.6-0.4-1V66.9H58.1v12.3c0,0.4-0.1,0.7-0.4,1c-0.3,0.3-0.6,0.4-1,0.4h-6.5
		c-0.4,0-0.7-0.1-1-0.4c-0.3-0.3-0.4-0.6-0.4-1V46.8c0-0.4,0.1-0.7,0.4-1c0.3-0.3,0.6-0.4,1-0.4h6.5c0.4,0,0.7,0.1,1,0.4
		c0.3,0.3,0.4,0.6,0.4,1v12h11.1v-12c0-0.4,0.1-0.7,0.4-1c0.3-0.3,0.6-0.4,1-0.4H77.1z"/>
	<path d="M111.1,45.5c0.4,0,0.7,0.1,0.9,0.4c0.3,0.3,0.4,0.6,0.4,1v5.3c0,0.4-0.1,0.7-0.4,1c-0.3,0.3-0.6,0.4-0.9,0.4h-8.8v25.6
		c0,0.4-0.1,0.7-0.4,1c-0.3,0.3-0.6,0.4-1,0.4h-6.5c-0.4,0-0.7-0.1-1-0.4c-0.3-0.3-0.4-0.6-0.4-1V53.5h-8.8c-0.4,0-0.7-0.1-1-0.4
		c-0.3-0.3-0.4-0.6-0.4-1v-5.3c0-0.4,0.1-0.7,0.4-1c0.3-0.3,0.6-0.4,1-0.4H111.1z"/>
	<path d="M131.6,71.7c-0.3-0.3-0.5-0.6-0.7-0.8l-4.7-8.3v16.5c0,0.4-0.1,0.7-0.4,1c-0.3,0.3-0.6,0.4-1,0.4h-6.5
		c-0.4,0-0.7-0.1-1-0.4c-0.3-0.3-0.4-0.6-0.4-1V46.8c0-0.4,0.1-0.7,0.4-1c0.3-0.3,0.6-0.4,1-0.4h5.8c0.7,0,1.2,0.2,1.5,0.5
		c0.3,0.4,0.6,0.6,0.6,0.8l8.1,13.9l8.1-13.9c0.1-0.2,0.3-0.4,0.6-0.8c0.3-0.4,0.8-0.5,1.5-0.5h5.8c0.4,0,0.7,0.1,0.9,0.4
		c0.3,0.3,0.4,0.6,0.4,1v32.3c0,0.4-0.1,0.7-0.4,1c-0.3,0.3-0.6,0.4-0.9,0.4h-6.6c-0.4,0-0.7-0.1-0.9-0.4c-0.3-0.3-0.4-0.6-0.4-1
		V62.6l-4.7,8.3c-0.2,0.3-0.4,0.5-0.7,0.8c-0.3,0.3-0.7,0.4-1.2,0.4h-3.2C132.3,72.1,131.9,72,131.6,71.7z"/>
	<path d="M183.3,72.5c0.4,0,0.7,0.1,1,0.4c0.3,0.3,0.4,0.6,0.4,1v5.3c0,0.4-0.1,0.7-0.4,1c-0.3,0.3-0.6,0.4-1,0.4h-23.1
		c-0.4,0-0.7-0.1-1-0.4c-0.3-0.3-0.4-0.6-0.4-1V46.8c0-0.4,0.1-0.7,0.4-1c0.3-0.3,0.6-0.4,1-0.4h6.5c0.4,0,0.7,0.1,1,0.4
		c0.3,0.3,0.4,0.6,0.4,1v25.6H183.3z"/>
</g>
<g>
	<path d="M299.2,58.8c0,0.4-0.1,1-0.1,1.8c0,0.8,0,1.6,0,2.4c0,0.8,0,1.6,0,2.4c0,0.8,0,1.4,0.1,1.8c0.1,0.8,0.2,1.5,0.5,2.2
		c0.2,0.7,0.6,1.3,1.1,1.9c0.5,0.5,1.1,1,1.9,1.3c0.8,0.3,1.7,0.5,2.9,0.5c1.1,0,2.1-0.1,2.8-0.4c0.7-0.3,1.3-0.6,1.8-1
		c0.5-0.4,0.8-0.8,1.1-1.3c0.3-0.5,0.4-0.9,0.6-1.3c0.2-0.5,0.4-0.9,0.5-1.1c0.2-0.2,0.6-0.3,1.1-0.3h6.6c0.3,0,0.6,0.1,0.8,0.3
		c0.2,0.2,0.3,0.5,0.3,0.8c0,1.7-0.5,3.3-1.3,4.8c-0.8,1.5-1.9,2.8-3.3,3.9s-3,2-4.9,2.6c-1.9,0.6-3.9,1-6.1,1
		c-2.4,0-4.5-0.4-6.4-1.1c-1.9-0.7-3.5-1.7-4.8-2.9c-1.3-1.2-2.4-2.7-3.1-4.3c-0.7-1.6-1.1-3.4-1.2-5.2c-0.1-1.4-0.1-2.8-0.1-4.4
		c0-1.6,0-3.1,0.1-4.5c0.1-1.8,0.5-3.6,1.2-5.2c0.7-1.7,1.8-3.1,3.1-4.3c1.3-1.2,2.9-2.2,4.8-2.9s4.1-1.1,6.5-1.1
		c2.2,0,4.2,0.3,6.1,1c1.9,0.6,3.5,1.5,4.9,2.6s2.5,2.4,3.3,3.9c0.8,1.5,1.2,3.1,1.3,4.8c0,0.3-0.1,0.6-0.3,0.8
		c-0.2,0.2-0.5,0.3-0.8,0.3h-6.6c-0.6,0-0.9-0.1-1.1-0.3c-0.2-0.2-0.4-0.6-0.5-1.1c-0.1-0.4-0.3-0.8-0.6-1.3
		c-0.3-0.5-0.6-0.9-1.1-1.3c-0.5-0.4-1.1-0.7-1.8-1c-0.7-0.3-1.7-0.4-2.8-0.4c-1.1,0-2.1,0.2-2.9,0.5c-0.8,0.3-1.4,0.7-1.9,1.3
		c-0.5,0.5-0.9,1.1-1.1,1.9C299.4,57.3,299.3,58,299.2,58.8z"/>
	<path d="M339.3,45c2.1,0,4.1,0.3,5.9,0.9c1.8,0.6,3.3,1.4,4.6,2.4c1.3,1,2.3,2,3,3.2c0.7,1.2,1.1,2.3,1.2,3.4
		c0,0.3-0.1,0.6-0.3,0.8c-0.2,0.2-0.5,0.3-0.7,0.3h-6.5c-0.5,0-0.8-0.1-1.1-0.2c-0.3-0.1-0.6-0.3-0.9-0.6c-0.1-0.1-0.3-0.3-0.5-0.5
		c-0.2-0.2-0.5-0.5-0.9-0.7c-0.4-0.3-0.9-0.5-1.5-0.6c-0.6-0.2-1.3-0.3-2.2-0.3c-0.6,0-1.2,0-1.8,0.1c-0.6,0.1-1.1,0.2-1.5,0.4
		c-0.5,0.2-0.8,0.4-1.1,0.8c-0.3,0.3-0.4,0.8-0.4,1.3s0.2,0.9,0.5,1.3c0.3,0.3,0.8,0.6,1.6,0.9c0.8,0.3,1.7,0.6,3,0.8
		c1.2,0.3,2.8,0.6,4.6,1c1.8,0.4,3.4,0.8,4.8,1.4c1.4,0.6,2.5,1.3,3.4,2.1c0.9,0.9,1.6,1.9,2,3c0.5,1.1,0.7,2.5,0.7,4.1
		c0,1.7-0.4,3.2-1.2,4.5c-0.8,1.3-1.8,2.5-3.2,3.4c-1.4,0.9-3,1.7-4.9,2.2c-1.9,0.5-3.9,0.8-6.2,0.8c-2.3,0-4.3-0.3-6.2-0.9
		c-1.9-0.6-3.5-1.4-4.8-2.4c-1.4-1-2.4-2.1-3.2-3.3c-0.8-1.2-1.2-2.5-1.2-3.8c0-0.3,0.1-0.6,0.3-0.8c0.2-0.2,0.5-0.3,0.7-0.3h6.6
		c0.5,0,0.8,0.1,1.1,0.2c0.3,0.1,0.5,0.3,0.8,0.5c0.1,0.1,0.3,0.4,0.6,0.6c0.3,0.3,0.6,0.6,1.1,0.9c0.5,0.3,1,0.6,1.7,0.8
		c0.7,0.2,1.5,0.4,2.5,0.4c1.8,0,3.2-0.2,4.4-0.6c1.2-0.4,1.8-1.1,1.8-2.1c0-0.5-0.2-0.9-0.7-1.3c-0.4-0.3-1.1-0.6-1.9-0.9
		c-0.9-0.3-2-0.6-3.3-0.8c-1.4-0.3-2.9-0.6-4.8-1c-3.4-0.7-5.9-2-7.5-3.7c-1.6-1.7-2.4-4-2.4-6.9c0-1.4,0.3-2.8,1-4.1
		c0.6-1.3,1.6-2.5,2.8-3.5c1.2-1,2.7-1.8,4.5-2.4C335.1,45.3,337.1,45,339.3,45z"/>
</g>
<g>
	<path d="M503.1,67.7c0,2.2-0.4,4.1-1.2,5.8s-1.9,3-3.3,4.1c-1.4,1.1-3,2-4.8,2.5c-1.8,0.6-3.7,0.8-5.7,0.8c-2.2,0-4.1-0.3-5.9-0.9
		c-1.8-0.6-3.4-1.4-4.7-2.4c-1.3-1-2.3-2.3-3.1-3.7c-0.8-1.5-1.1-3.1-1.2-4.9c0-0.3,0.1-0.6,0.3-0.8c0.2-0.2,0.5-0.3,0.8-0.3h6.4
		c0.6,0,1,0.1,1.3,0.3c0.2,0.2,0.4,0.6,0.6,1.1c0.4,1.1,1,2,1.9,2.6c0.9,0.6,2.1,0.9,3.7,0.9c1.9,0,3.3-0.5,4.3-1.4
		c1-1,1.4-2.3,1.4-4.1v-14h-17.1c-0.4,0-0.7-0.1-1-0.4c-0.3-0.3-0.4-0.6-0.4-1v-5.3c0-0.4,0.1-0.7,0.4-1c0.3-0.3,0.6-0.4,1-0.4h25
		c0.4,0,0.7,0.1,0.9,0.4c0.3,0.3,0.4,0.6,0.4,1V67.7z"/>
	<path d="M522.8,45c2.1,0,4.1,0.3,5.9,0.9c1.8,0.6,3.3,1.4,4.6,2.4c1.3,1,2.3,2,3,3.2c0.7,1.2,1.1,2.3,1.2,3.4
		c0,0.3-0.1,0.6-0.3,0.8c-0.2,0.2-0.5,0.3-0.7,0.3h-6.5c-0.5,0-0.8-0.1-1.1-0.2c-0.3-0.1-0.6-0.3-0.9-0.6c-0.1-0.1-0.3-0.3-0.5-0.5
		c-0.2-0.2-0.5-0.5-0.9-0.7c-0.4-0.3-0.9-0.5-1.5-0.6c-0.6-0.2-1.3-0.3-2.2-0.3c-0.6,0-1.2,0-1.8,0.1c-0.6,0.1-1.1,0.2-1.5,0.4
		c-0.5,0.2-0.8,0.4-1.1,0.8c-0.3,0.3-0.4,0.8-0.4,1.3s0.2,0.9,0.5,1.3c0.3,0.3,0.8,0.6,1.6,0.9c0.8,0.3,1.7,0.6,3,0.8
		c1.2,0.3,2.8,0.6,4.6,1c1.8,0.4,3.4,0.8,4.8,1.4c1.4,0.6,2.5,1.3,3.4,2.1s1.6,1.9,2,3c0.5,1.1,0.7,2.5,0.7,4.1
		c0,1.7-0.4,3.2-1.2,4.5c-0.8,1.3-1.8,2.5-3.2,3.4c-1.4,0.9-3,1.7-4.9,2.2c-1.9,0.5-3.9,0.8-6.2,0.8c-2.3,0-4.3-0.3-6.2-0.9
		c-1.9-0.6-3.5-1.4-4.8-2.4c-1.3-1-2.4-2.1-3.2-3.3c-0.8-1.2-1.2-2.5-1.2-3.8c0-0.3,0.1-0.6,0.3-0.8c0.2-0.2,0.5-0.3,0.7-0.3h6.6
		c0.5,0,0.8,0.1,1.1,0.2c0.3,0.1,0.5,0.3,0.8,0.5c0.1,0.1,0.3,0.4,0.6,0.6c0.3,0.3,0.6,0.6,1.1,0.9c0.5,0.3,1,0.6,1.7,0.8
		c0.7,0.2,1.5,0.4,2.5,0.4c1.8,0,3.2-0.2,4.4-0.6c1.2-0.4,1.8-1.1,1.8-2.1c0-0.5-0.2-0.9-0.7-1.3c-0.4-0.3-1.1-0.6-2-0.9
		c-0.9-0.3-2-0.6-3.3-0.8c-1.3-0.3-2.9-0.6-4.8-1c-3.4-0.7-5.9-2-7.5-3.7c-1.6-1.7-2.4-4-2.4-6.9c0-1.4,0.3-2.8,1-4.1
		c0.6-1.3,1.6-2.5,2.8-3.5s2.7-1.8,4.5-2.4C518.7,45.3,520.7,45,522.8,45z"/>
</g>
<g>
	<path d="M670.2,45.7c2.1,0,4,0.2,5.8,0.7c1.7,0.5,3.1,1.2,4.3,2.2c1.2,1,2.1,2.2,2.8,3.7c0.6,1.5,1,3.2,1,5.1c0,2-0.3,3.7-1,5.1
		c-0.7,1.5-1.6,2.7-2.8,3.6c-1.2,1-2.7,1.7-4.3,2.2c-1.7,0.5-3.6,0.8-5.8,0.8h-6.4v10.2c0,0.4-0.1,0.7-0.4,1
		c-0.3,0.3-0.6,0.4-0.9,0.4h-6.6c-0.4,0-0.7-0.1-0.9-0.4c-0.3-0.3-0.4-0.6-0.4-1V47c0-0.4,0.1-0.7,0.4-1c0.3-0.3,0.6-0.4,0.9-0.4
		H670.2z M663.8,61.3h6.2c1.4,0,2.6-0.3,3.5-0.9c0.9-0.6,1.4-1.6,1.4-3c0-1.4-0.5-2.4-1.4-3c-0.9-0.6-2.1-0.9-3.5-0.9h-6.2V61.3z"/>
	<path d="M705.9,79.3c0,0.4-0.1,0.7-0.4,1c-0.3,0.3-0.6,0.4-0.9,0.4H698c-0.4,0-0.7-0.1-0.9-0.4c-0.3-0.3-0.4-0.6-0.4-1V68.7
		l-11.6-21.3c-0.1-0.2-0.2-0.5-0.2-0.6c0-0.3,0.1-0.6,0.3-0.8s0.5-0.3,0.8-0.3h6.8c0.7,0,1.2,0.2,1.5,0.5c0.3,0.3,0.5,0.6,0.6,0.8
		l6.3,12.3l6.3-12.3c0.1-0.2,0.3-0.4,0.6-0.8c0.3-0.3,0.8-0.5,1.5-0.5h6.9c0.3,0,0.6,0.1,0.8,0.3c0.2,0.2,0.3,0.5,0.3,0.8
		c0,0.2-0.1,0.4-0.2,0.6l-11.5,21.3V79.3z"/>
	<path d="M747.7,45.7c0.4,0,0.7,0.1,0.9,0.4c0.3,0.3,0.4,0.6,0.4,1v5.3c0,0.4-0.1,0.7-0.4,1c-0.3,0.3-0.6,0.4-0.9,0.4h-8.8v25.6
		c0,0.4-0.1,0.7-0.4,1c-0.3,0.3-0.6,0.4-0.9,0.4h-6.6c-0.4,0-0.7-0.1-0.9-0.4c-0.3-0.3-0.4-0.6-0.4-1V53.7h-8.8
		c-0.4,0-0.7-0.1-1-0.4c-0.3-0.3-0.4-0.6-0.4-1V47c0-0.4,0.1-0.7,0.4-1c0.3-0.3,0.6-0.4,1-0.4H747.7z"/>
	<path d="M781.8,45.7c0.4,0,0.7,0.1,0.9,0.4c0.3,0.3,0.4,0.6,0.4,1v32.3c0,0.4-0.1,0.7-0.4,1c-0.3,0.3-0.6,0.4-0.9,0.4h-6.6
		c-0.4,0-0.7-0.1-0.9-0.4c-0.3-0.3-0.4-0.6-0.4-1V67.1h-11.1v12.3c0,0.4-0.1,0.7-0.4,1c-0.3,0.3-0.6,0.4-1,0.4h-6.5
		c-0.4,0-0.7-0.1-1-0.4s-0.4-0.6-0.4-1V47c0-0.4,0.1-0.7,0.4-1c0.3-0.3,0.6-0.4,1-0.4h6.5c0.4,0,0.7,0.1,1,0.4
		c0.3,0.3,0.4,0.6,0.4,1v12h11.1V47c0-0.4,0.1-0.7,0.4-1c0.3-0.3,0.6-0.4,0.9-0.4H781.8z"/>
	<path d="M788.9,58.7c0.1-1.9,0.5-3.6,1.2-5.3s1.7-3.1,3.1-4.3c1.3-1.2,2.9-2.2,4.8-2.9s4.1-1.1,6.5-1.1c2.4,0,4.6,0.4,6.5,1.1
		s3.5,1.7,4.8,2.9c1.3,1.2,2.3,2.6,3,4.3s1.1,3.4,1.2,5.3c0.1,1.4,0.1,2.9,0.1,4.5c0,1.6,0,3-0.1,4.4c-0.1,1.9-0.5,3.6-1.2,5.3
		s-1.7,3.1-3,4.3c-1.3,1.2-2.9,2.2-4.8,2.9c-1.9,0.7-4.1,1-6.5,1c-2.5,0-4.6-0.4-6.5-1c-1.9-0.7-3.5-1.7-4.8-2.9
		c-1.3-1.2-2.3-2.7-3.1-4.3s-1.1-3.4-1.2-5.3c-0.1-1.4-0.1-2.8-0.1-4.4C788.8,61.6,788.9,60.1,788.9,58.7z M810.9,67.4
		c0-0.6,0.1-1.3,0.1-2c0-0.7,0-1.5,0-2.3c0-0.8,0-1.5,0-2.2c0-0.7-0.1-1.4-0.1-1.9c-0.1-0.8-0.2-1.6-0.5-2.3
		c-0.3-0.7-0.7-1.3-1.2-1.8c-0.5-0.5-1.2-0.9-1.9-1.2c-0.8-0.3-1.7-0.5-2.7-0.5s-1.9,0.1-2.7,0.5c-0.8,0.3-1.4,0.7-1.9,1.2
		c-0.5,0.5-0.9,1.1-1.2,1.8c-0.3,0.7-0.5,1.5-0.5,2.3c-0.1,0.6-0.1,1.2-0.1,1.9c0,0.7,0,1.5,0,2.2c0,0.8,0,1.5,0,2.3
		c0,0.7,0.1,1.4,0.1,2c0.1,1.7,0.7,3,1.7,4.1c1,1.1,2.6,1.6,4.6,1.6s3.6-0.5,4.6-1.6S810.7,69,810.9,67.4z"/>
	<path d="M848.7,80.7c-0.6,0-1-0.1-1.4-0.5c-0.3-0.3-0.6-0.5-0.7-0.7l-11.5-17.1v16.9c0,0.4-0.1,0.7-0.4,1c-0.3,0.3-0.6,0.4-1,0.4
		h-6.5c-0.4,0-0.7-0.1-1-0.4c-0.3-0.3-0.4-0.6-0.4-1V47c0-0.4,0.1-0.7,0.4-1c0.3-0.3,0.6-0.4,1-0.4h5.2c0.6,0,1,0.1,1.4,0.5
		c0.3,0.3,0.6,0.5,0.7,0.7L846,63.9V47c0-0.4,0.1-0.7,0.4-1c0.3-0.3,0.6-0.4,0.9-0.4h6.6c0.4,0,0.7,0.1,0.9,0.4
		c0.3,0.3,0.4,0.6,0.4,1v32.3c0,0.4-0.1,0.7-0.4,1c-0.3,0.3-0.6,0.4-0.9,0.4H848.7z"/>
</g>
<g>
	<path d="M60.2,213c2.1,0,4.1,0.3,5.9,0.9c1.8,0.6,3.3,1.4,4.6,2.4s2.3,2,3,3.2c0.7,1.2,1.1,2.3,1.2,3.3c0,0.3-0.1,0.6-0.3,0.8
		c-0.2,0.2-0.5,0.3-0.7,0.3h-6.5c-0.5,0-0.8-0.1-1.1-0.2c-0.3-0.1-0.6-0.3-0.9-0.6c-0.1-0.1-0.3-0.3-0.5-0.5
		c-0.2-0.2-0.5-0.5-0.9-0.7c-0.4-0.3-0.9-0.5-1.5-0.7c-0.6-0.2-1.3-0.3-2.2-0.3c-0.6,0-1.2,0-1.8,0.1c-0.6,0.1-1.1,0.2-1.5,0.4
		c-0.5,0.2-0.8,0.4-1.1,0.8c-0.3,0.3-0.4,0.8-0.4,1.3s0.2,0.9,0.5,1.3c0.3,0.3,0.8,0.6,1.6,0.9c0.8,0.3,1.7,0.6,3,0.8
		c1.2,0.3,2.8,0.6,4.6,1c1.8,0.4,3.4,0.8,4.8,1.4c1.4,0.6,2.5,1.3,3.4,2.1c0.9,0.9,1.6,1.9,2,3c0.5,1.2,0.7,2.5,0.7,4.1
		c0,1.7-0.4,3.2-1.2,4.5c-0.8,1.3-1.8,2.5-3.2,3.4c-1.4,0.9-3,1.7-4.9,2.2c-1.9,0.5-3.9,0.8-6.2,0.8c-2.3,0-4.3-0.3-6.2-0.9
		c-1.9-0.6-3.5-1.4-4.8-2.4c-1.4-1-2.4-2.1-3.2-3.3c-0.8-1.2-1.2-2.5-1.2-3.8c0-0.3,0.1-0.6,0.3-0.8s0.5-0.3,0.7-0.3h6.6
		c0.5,0,0.8,0.1,1.1,0.2c0.3,0.1,0.5,0.3,0.8,0.5c0.1,0.1,0.3,0.3,0.6,0.6c0.3,0.3,0.6,0.6,1.1,0.9c0.5,0.3,1,0.6,1.7,0.8
		c0.7,0.2,1.5,0.4,2.5,0.4c1.8,0,3.2-0.2,4.4-0.6c1.2-0.4,1.8-1.1,1.8-2.1c0-0.5-0.2-0.9-0.7-1.3c-0.4-0.3-1.1-0.6-1.9-0.9
		c-0.9-0.3-2-0.6-3.3-0.8c-1.4-0.3-2.9-0.6-4.8-1c-3.4-0.7-5.9-2-7.5-3.7c-1.6-1.7-2.4-4-2.4-6.9c0-1.4,0.3-2.8,1-4.1
		c0.6-1.3,1.6-2.5,2.8-3.5c1.2-1,2.7-1.8,4.5-2.4S58,213,60.2,213z"/>
	<path d="M98.8,213.5c0.7,0,1.2,0.2,1.5,0.5c0.4,0.4,0.6,0.7,0.7,1.1l10.9,31.5c0.1,0.3,0.2,0.6,0.2,0.8c0,0.3-0.1,0.6-0.3,0.8
		c-0.2,0.2-0.5,0.3-0.8,0.3h-6.3c-0.7,0-1.1-0.1-1.4-0.4c-0.3-0.3-0.5-0.6-0.5-0.8l-1.4-4.2H88.1l-1.4,4.2c-0.1,0.3-0.2,0.5-0.5,0.8
		c-0.3,0.3-0.8,0.4-1.4,0.4h-6.3c-0.3,0-0.6-0.1-0.8-0.3c-0.2-0.2-0.3-0.5-0.3-0.8c0-0.2,0.1-0.4,0.2-0.8l10.9-31.5
		c0.1-0.4,0.4-0.7,0.7-1.1c0.4-0.4,0.9-0.5,1.5-0.5H98.8z M90.7,235.3h8.1l-4-12L90.7,235.3z"/>
	<path d="M128.5,213c2.1,0,4.1,0.3,5.9,0.9c1.8,0.6,3.3,1.4,4.6,2.4s2.3,2,3,3.2c0.7,1.2,1.1,2.3,1.2,3.3c0,0.3-0.1,0.6-0.3,0.8
		c-0.2,0.2-0.5,0.3-0.7,0.3h-6.5c-0.5,0-0.8-0.1-1.1-0.2c-0.3-0.1-0.6-0.3-0.9-0.6c-0.1-0.1-0.3-0.3-0.5-0.5
		c-0.2-0.2-0.5-0.5-0.9-0.7c-0.4-0.3-0.9-0.5-1.5-0.7c-0.6-0.2-1.3-0.3-2.2-0.3c-0.6,0-1.2,0-1.8,0.1c-0.6,0.1-1.1,0.2-1.5,0.4
		c-0.5,0.2-0.8,0.4-1.1,0.8c-0.3,0.3-0.4,0.8-0.4,1.3s0.2,0.9,0.5,1.3c0.3,0.3,0.8,0.6,1.6,0.9c0.8,0.3,1.7,0.6,3,0.8
		c1.2,0.3,2.8,0.6,4.6,1c1.8,0.4,3.4,0.8,4.8,1.4c1.4,0.6,2.5,1.3,3.4,2.1c0.9,0.9,1.6,1.9,2,3c0.5,1.2,0.7,2.5,0.7,4.1
		c0,1.7-0.4,3.2-1.2,4.5c-0.8,1.3-1.8,2.5-3.2,3.4c-1.4,0.9-3,1.7-4.9,2.2c-1.9,0.5-3.9,0.8-6.2,0.8c-2.3,0-4.3-0.3-6.2-0.9
		c-1.9-0.6-3.5-1.4-4.8-2.4c-1.4-1-2.4-2.1-3.2-3.3c-0.8-1.2-1.2-2.5-1.2-3.8c0-0.3,0.1-0.6,0.3-0.8s0.5-0.3,0.7-0.3h6.6
		c0.5,0,0.8,0.1,1.1,0.2c0.3,0.1,0.5,0.3,0.8,0.5c0.1,0.1,0.3,0.3,0.6,0.6c0.3,0.3,0.6,0.6,1.1,0.9c0.5,0.3,1,0.6,1.7,0.8
		c0.7,0.2,1.5,0.4,2.5,0.4c1.8,0,3.2-0.2,4.4-0.6c1.2-0.4,1.8-1.1,1.8-2.1c0-0.5-0.2-0.9-0.7-1.3c-0.4-0.3-1.1-0.6-1.9-0.9
		c-0.9-0.3-2-0.6-3.3-0.8c-1.4-0.3-2.9-0.6-4.8-1c-3.4-0.7-5.9-2-7.5-3.7c-1.6-1.7-2.4-4-2.4-6.9c0-1.4,0.3-2.8,1-4.1
		c0.6-1.3,1.6-2.5,2.8-3.5c1.2-1,2.7-1.8,4.5-2.4S126.3,213,128.5,213z"/>
	<path d="M162.2,213c2.1,0,4.1,0.3,5.9,0.9c1.8,0.6,3.3,1.4,4.6,2.4s2.3,2,3,3.2c0.7,1.2,1.1,2.3,1.2,3.3c0,0.3-0.1,0.6-0.3,0.8
		c-0.2,0.2-0.5,0.3-0.7,0.3h-6.5c-0.5,0-0.8-0.1-1.1-0.2c-0.3-0.1-0.6-0.3-0.9-0.6c-0.1-0.1-0.3-0.3-0.5-0.5
		c-0.2-0.2-0.5-0.5-0.9-0.7c-0.4-0.3-0.9-0.5-1.5-0.7c-0.6-0.2-1.3-0.3-2.2-0.3c-0.6,0-1.2,0-1.8,0.1c-0.6,0.1-1.1,0.2-1.5,0.4
		c-0.5,0.2-0.8,0.4-1.1,0.8c-0.3,0.3-0.4,0.8-0.4,1.3s0.2,0.9,0.5,1.3c0.3,0.3,0.8,0.6,1.6,0.9c0.8,0.3,1.7,0.6,3,0.8
		c1.2,0.3,2.8,0.6,4.6,1c1.8,0.4,3.4,0.8,4.8,1.4c1.4,0.6,2.5,1.3,3.4,2.1c0.9,0.9,1.6,1.9,2,3c0.5,1.2,0.7,2.5,0.7,4.1
		c0,1.7-0.4,3.2-1.2,4.5c-0.8,1.3-1.8,2.5-3.2,3.4c-1.4,0.9-3,1.7-4.9,2.2c-1.9,0.5-3.9,0.8-6.2,0.8c-2.3,0-4.3-0.3-6.2-0.9
		c-1.9-0.6-3.5-1.4-4.8-2.4c-1.4-1-2.4-2.1-3.2-3.3c-0.8-1.2-1.2-2.5-1.2-3.8c0-0.3,0.1-0.6,0.3-0.8s0.5-0.3,0.7-0.3h6.6
		c0.5,0,0.8,0.1,1.1,0.2c0.3,0.1,0.5,0.3,0.8,0.5c0.1,0.1,0.3,0.3,0.6,0.6c0.3,0.3,0.6,0.6,1.1,0.9c0.5,0.3,1,0.6,1.7,0.8
		c0.7,0.2,1.5,0.4,2.5,0.4c1.8,0,3.2-0.2,4.4-0.6c1.2-0.4,1.8-1.1,1.8-2.1c0-0.5-0.2-0.9-0.7-1.3c-0.4-0.3-1.1-0.6-1.9-0.9
		c-0.9-0.3-2-0.6-3.3-0.8c-1.4-0.3-2.9-0.6-4.8-1c-3.4-0.7-5.9-2-7.5-3.7c-1.6-1.7-2.4-4-2.4-6.9c0-1.4,0.3-2.8,1-4.1
		c0.6-1.3,1.6-2.5,2.8-3.5c1.2-1,2.7-1.8,4.5-2.4S160,213,162.2,213z"/>
</g>
<g>
	<path d="M244.6,248.5c-0.6,0-1-0.2-1.4-0.5s-0.6-0.5-0.7-0.7l-11.5-17.1v16.9c0,0.4-0.1,0.7-0.4,1c-0.3,0.3-0.6,0.4-1,0.4h-6.5
		c-0.4,0-0.7-0.1-1-0.4c-0.3-0.3-0.4-0.6-0.4-1v-32.3c0-0.4,0.1-0.7,0.4-1c0.3-0.3,0.6-0.4,1-0.4h5.2c0.6,0,1,0.1,1.4,0.5
		c0.4,0.3,0.6,0.5,0.7,0.7l11.4,17.1v-16.9c0-0.4,0.1-0.7,0.4-1c0.3-0.3,0.6-0.4,0.9-0.4h6.6c0.4,0,0.7,0.1,0.9,0.4
		c0.3,0.3,0.4,0.6,0.4,1v32.3c0,0.4-0.1,0.7-0.4,1c-0.3,0.3-0.6,0.4-0.9,0.4H244.6z"/>
	<path d="M257,226.5c0.1-1.9,0.5-3.6,1.2-5.3c0.7-1.6,1.7-3.1,3-4.3c1.3-1.2,2.9-2.2,4.8-2.9c1.9-0.7,4.1-1.1,6.5-1.1
		c2.4,0,4.6,0.4,6.5,1.1c1.9,0.7,3.5,1.7,4.8,2.9c1.3,1.2,2.3,2.7,3.1,4.3c0.7,1.7,1.1,3.4,1.2,5.3c0.1,1.4,0.1,2.9,0.1,4.5
		c0,1.6,0,3-0.1,4.4c-0.1,1.9-0.5,3.6-1.2,5.3c-0.7,1.7-1.7,3.1-3.1,4.3c-1.3,1.2-2.9,2.2-4.8,2.9c-1.9,0.7-4.1,1-6.5,1
		c-2.5,0-4.6-0.4-6.5-1c-1.9-0.7-3.5-1.7-4.8-2.9c-1.3-1.2-2.3-2.7-3-4.3c-0.7-1.6-1.1-3.4-1.2-5.3c-0.1-1.4-0.1-2.8-0.1-4.4
		C256.9,229.5,256.9,228,257,226.5z M278.9,235.2c0-0.6,0.1-1.3,0.1-2c0-0.7,0.1-1.5,0.1-2.3s0-1.5-0.1-2.2c0-0.7-0.1-1.4-0.1-1.9
		c-0.1-0.8-0.2-1.6-0.5-2.3c-0.3-0.7-0.7-1.3-1.2-1.8c-0.5-0.5-1.2-0.9-1.9-1.2c-0.8-0.3-1.7-0.5-2.7-0.5c-1,0-1.9,0.1-2.7,0.5
		c-0.8,0.3-1.4,0.7-1.9,1.2c-0.5,0.5-0.9,1.1-1.2,1.8c-0.3,0.7-0.5,1.5-0.5,2.3c-0.1,0.6-0.1,1.2-0.1,1.9c0,0.7,0,1.5,0,2.2
		s0,1.5,0,2.3c0,0.7,0.1,1.4,0.1,2c0.1,1.7,0.7,3,1.7,4.1c1,1.1,2.6,1.7,4.6,1.7c2.1,0,3.6-0.5,4.6-1.7
		C278.2,238.3,278.8,236.9,278.9,235.2z"/>
	<path d="M308.6,213.5c2.3,0,4.4,0.3,6.3,1c1.9,0.7,3.5,1.6,4.9,2.9c1.4,1.2,2.5,2.7,3.3,4.4c0.8,1.7,1.2,3.6,1.3,5.6
		c0,0.7,0.1,1.3,0.1,1.9s0,1.1,0,1.7s0,1.1,0,1.7s0,1.2-0.1,1.8c-0.1,2.1-0.5,4-1.3,5.7c-0.8,1.7-1.8,3.2-3.2,4.4
		c-1.3,1.2-3,2.2-4.8,2.9c-1.9,0.7-4,1-6.3,1h-13.5c-0.4,0-0.7-0.1-1-0.4c-0.3-0.3-0.4-0.6-0.4-1v-32.3c0-0.4,0.1-0.7,0.4-1
		c0.3-0.3,0.6-0.4,1-0.4H308.6z M315.2,227.3c-0.2-3.8-2.5-5.8-6.8-5.8h-5.1v19h5.4c4.2,0,6.4-1.9,6.5-5.8c0-0.7,0.1-1.4,0.1-2
		c0-0.6,0-1.2,0-1.8c0-0.6,0-1.2,0-1.8C315.2,228.6,315.2,228,315.2,227.3z"/>
	<path d="M355.2,240.5c0.4,0,0.7,0.1,1,0.4c0.3,0.3,0.4,0.6,0.4,1v5.3c0,0.4-0.1,0.7-0.4,1c-0.3,0.3-0.6,0.4-1,0.4h-23.7
		c-0.4,0-0.7-0.1-1-0.4c-0.3-0.3-0.4-0.6-0.4-1v-32.3c0-0.4,0.1-0.7,0.4-1c0.3-0.3,0.6-0.4,1-0.4h23.3c0.4,0,0.7,0.1,1,0.4
		c0.3,0.3,0.4,0.6,0.4,1v5.3c0,0.4-0.1,0.7-0.4,1c-0.3,0.3-0.6,0.4-1,0.4h-15.4v5.4h14.3c0.4,0,0.7,0.1,1,0.4c0.3,0.3,0.4,0.6,0.4,1
		v5.3c0,0.4-0.1,0.7-0.4,1c-0.3,0.3-0.6,0.4-1,0.4h-14.3v5.6H355.2z"/>
</g>
<g>
	<path d="M437.5,213.5c2.2,0,4.2,0.2,5.9,0.7c1.7,0.5,3.2,1.2,4.4,2.1c1.2,0.9,2.2,2.1,2.8,3.6c0.7,1.5,1,3.1,1,5.1
		c0,2.5-0.5,4.6-1.5,6.2c-1,1.7-2.5,2.9-4.4,3.8l6.2,11.9c0.1,0.2,0.1,0.4,0.1,0.5c0,0.3-0.1,0.6-0.3,0.8c-0.2,0.2-0.5,0.3-0.8,0.3
		h-6.8c-0.7,0-1.1-0.2-1.4-0.5c-0.3-0.3-0.5-0.6-0.7-0.9l-5.5-10.7h-4.6v10.7c0,0.4-0.1,0.7-0.4,1c-0.3,0.3-0.6,0.4-1,0.4h-6.5
		c-0.4,0-0.7-0.1-1-0.4c-0.3-0.3-0.4-0.6-0.4-1v-32.3c0-0.4,0.1-0.7,0.4-1c0.3-0.3,0.6-0.4,1-0.4H437.5z M431.8,228.6h5.6
		c1.4,0,2.6-0.3,3.5-0.8c0.9-0.5,1.4-1.5,1.4-2.9c0-1.4-0.5-2.4-1.4-2.9c-0.9-0.5-2.1-0.8-3.5-0.8h-5.6V228.6z"/>
	<path d="M482.4,240.5c0.4,0,0.7,0.1,1,0.4c0.3,0.3,0.4,0.6,0.4,1v5.3c0,0.4-0.1,0.7-0.4,1c-0.3,0.3-0.6,0.4-1,0.4h-23.7
		c-0.4,0-0.7-0.1-1-0.4c-0.3-0.3-0.4-0.6-0.4-1v-32.3c0-0.4,0.1-0.7,0.4-1c0.3-0.3,0.6-0.4,1-0.4H482c0.4,0,0.7,0.1,1,0.4
		c0.3,0.3,0.4,0.6,0.4,1v5.3c0,0.4-0.1,0.7-0.4,1c-0.3,0.3-0.6,0.4-1,0.4h-15.4v5.4h14.3c0.4,0,0.7,0.1,1,0.4c0.3,0.3,0.4,0.6,0.4,1
		v5.3c0,0.4-0.1,0.7-0.4,1s-0.6,0.4-1,0.4h-14.3v5.6H482.4z"/>
	<path d="M508,213.5c0.7,0,1.2,0.2,1.5,0.5c0.3,0.4,0.6,0.7,0.7,1.1l10.9,31.5c0.1,0.3,0.2,0.6,0.2,0.8c0,0.3-0.1,0.6-0.3,0.8
		c-0.2,0.2-0.5,0.3-0.8,0.3h-6.3c-0.7,0-1.1-0.1-1.4-0.4c-0.3-0.3-0.5-0.6-0.5-0.8l-1.4-4.2h-13.3l-1.4,4.2
		c-0.1,0.3-0.2,0.5-0.5,0.8s-0.8,0.4-1.4,0.4h-6.3c-0.3,0-0.6-0.1-0.8-0.3s-0.3-0.5-0.3-0.8c0-0.2,0.1-0.4,0.2-0.8l10.9-31.5
		c0.1-0.4,0.4-0.7,0.7-1.1c0.4-0.4,0.9-0.5,1.5-0.5H508z M499.9,235.3h8.1l-4-12L499.9,235.3z"/>
	<path d="M532.6,226.8c0,0.4-0.1,1-0.1,1.8c0,0.8,0,1.6,0,2.4c0,0.8,0,1.6,0,2.4s0,1.4,0.1,1.8c0.1,0.8,0.2,1.5,0.5,2.2
		c0.2,0.7,0.6,1.3,1.1,1.9s1.1,1,1.9,1.3c0.8,0.3,1.7,0.5,2.8,0.5c1.1,0,2.1-0.1,2.8-0.4c0.7-0.3,1.3-0.6,1.8-1
		c0.5-0.4,0.8-0.8,1.1-1.3c0.3-0.5,0.4-0.9,0.6-1.3c0.2-0.5,0.4-0.9,0.5-1.1c0.2-0.2,0.6-0.3,1.2-0.3h6.5c0.3,0,0.6,0.1,0.8,0.3
		c0.2,0.2,0.3,0.5,0.3,0.8c0,1.7-0.5,3.3-1.3,4.8c-0.8,1.5-1.9,2.8-3.3,3.9c-1.4,1.1-3,2-4.9,2.6c-1.9,0.7-3.9,1-6.1,1
		c-2.4,0-4.5-0.4-6.4-1.1c-1.9-0.7-3.5-1.7-4.8-2.9s-2.4-2.7-3.1-4.3s-1.1-3.4-1.2-5.2c-0.1-1.4-0.1-2.8-0.1-4.4
		c0-1.6,0-3.1,0.1-4.5c0.1-1.8,0.5-3.6,1.2-5.2c0.7-1.7,1.8-3.1,3.1-4.3c1.3-1.2,2.9-2.2,4.8-2.9c1.9-0.7,4.1-1.1,6.5-1.1
		c2.2,0,4.2,0.3,6.1,1c1.9,0.7,3.5,1.5,4.9,2.6c1.4,1.1,2.5,2.4,3.3,3.9c0.8,1.5,1.2,3.1,1.3,4.8c0,0.3-0.1,0.6-0.3,0.8
		c-0.2,0.2-0.5,0.3-0.8,0.3h-6.5c-0.6,0-1-0.1-1.2-0.3c-0.2-0.2-0.4-0.6-0.5-1.1c-0.1-0.4-0.3-0.8-0.6-1.3c-0.3-0.5-0.6-0.9-1.1-1.3
		c-0.5-0.4-1.1-0.7-1.8-1c-0.7-0.3-1.7-0.4-2.8-0.4c-1.1,0-2.1,0.2-2.8,0.5c-0.8,0.3-1.4,0.7-1.9,1.3s-0.9,1.1-1.1,1.8
		C532.8,225.3,532.6,226,532.6,226.8z"/>
	<path d="M585.3,213.5c0.4,0,0.7,0.1,0.9,0.4c0.3,0.3,0.4,0.6,0.4,1v5.3c0,0.4-0.1,0.7-0.4,1c-0.3,0.3-0.6,0.4-0.9,0.4h-8.8v25.6
		c0,0.4-0.1,0.7-0.4,1c-0.3,0.3-0.6,0.4-1,0.4h-6.5c-0.4,0-0.7-0.1-1-0.4c-0.3-0.3-0.4-0.6-0.4-1v-25.6h-8.8c-0.4,0-0.7-0.1-1-0.4
		c-0.3-0.3-0.4-0.6-0.4-1v-5.3c0-0.4,0.1-0.7,0.4-1c0.3-0.3,0.6-0.4,1-0.4H585.3z"/>
</g>
<g>
	<path d="M662.4,213.7c2.3,0,4.4,0.3,6.3,1c1.9,0.7,3.5,1.6,4.9,2.9c1.4,1.2,2.5,2.7,3.3,4.4c0.8,1.7,1.2,3.6,1.3,5.6
		c0,0.7,0.1,1.3,0.1,1.9c0,0.6,0,1.1,0,1.7s0,1.1,0,1.7s0,1.2-0.1,1.8c-0.1,2.1-0.5,3.9-1.3,5.7c-0.8,1.7-1.8,3.2-3.2,4.4
		s-3,2.2-4.8,2.9c-1.9,0.7-4,1-6.3,1h-13.5c-0.4,0-0.7-0.1-1-0.4s-0.4-0.6-0.4-1V215c0-0.4,0.1-0.7,0.4-1c0.3-0.3,0.6-0.4,1-0.4
		H662.4z M669,227.4c-0.2-3.8-2.5-5.8-6.8-5.8h-5.1v19h5.3c4.2,0,6.4-1.9,6.5-5.8c0-0.7,0.1-1.4,0.1-2c0-0.6,0-1.2,0-1.8
		s0-1.2,0-1.8C669,228.8,669,228.1,669,227.4z"/>
	<path d="M711.5,235.9c0,2.2-0.4,4.1-1.2,5.8s-1.9,3-3.3,4.2c-1.4,1.1-3,1.9-4.8,2.5c-1.8,0.5-3.7,0.8-5.7,0.8
		c-2.2,0-4.1-0.3-5.9-0.8c-1.8-0.6-3.4-1.4-4.7-2.4c-1.3-1-2.3-2.3-3.1-3.7c-0.8-1.5-1.1-3.1-1.2-4.9c0-0.3,0.1-0.6,0.3-0.8
		c0.2-0.2,0.5-0.3,0.8-0.3h6.4c0.6,0,1,0.1,1.3,0.3c0.2,0.2,0.4,0.6,0.6,1.2c0.4,1.1,1,2,1.9,2.6c0.9,0.6,2.1,0.9,3.7,0.9
		c1.9,0,3.3-0.5,4.3-1.4c1-1,1.4-2.3,1.4-4.1v-14h-17.1c-0.4,0-0.7-0.1-1-0.4c-0.3-0.3-0.4-0.6-0.4-1V215c0-0.4,0.1-0.7,0.4-1
		c0.3-0.3,0.6-0.4,1-0.4h25c0.4,0,0.7,0.1,0.9,0.4c0.3,0.3,0.4,0.6,0.4,1V235.9z"/>
	<path d="M735.8,213.7c0.7,0,1.2,0.2,1.5,0.6c0.3,0.4,0.6,0.7,0.7,1.1l10.9,31.5c0.1,0.3,0.2,0.6,0.2,0.8c0,0.3-0.1,0.6-0.3,0.8
		c-0.2,0.2-0.5,0.3-0.8,0.3h-6.3c-0.7,0-1.1-0.1-1.4-0.4c-0.3-0.3-0.5-0.6-0.5-0.8l-1.4-4.1h-13.3l-1.4,4.1
		c-0.1,0.3-0.2,0.5-0.5,0.8s-0.8,0.4-1.4,0.4h-6.3c-0.3,0-0.6-0.1-0.8-0.3s-0.3-0.5-0.3-0.8c0-0.2,0.1-0.4,0.2-0.8l10.9-31.5
		c0.1-0.4,0.4-0.7,0.7-1.1c0.4-0.4,0.9-0.6,1.5-0.6H735.8z M727.7,235.5h8.1l-4-12L727.7,235.5z"/>
	<path d="M775.9,248.7c-0.6,0-1-0.1-1.4-0.4c-0.3-0.3-0.6-0.5-0.7-0.7l-11.5-17.1v16.9c0,0.4-0.1,0.7-0.4,1c-0.3,0.3-0.6,0.4-1,0.4
		h-6.5c-0.4,0-0.7-0.1-1-0.4c-0.3-0.3-0.4-0.6-0.4-1V215c0-0.4,0.1-0.7,0.4-1c0.3-0.3,0.6-0.4,1-0.4h5.2c0.6,0,1,0.2,1.4,0.5
		c0.4,0.3,0.6,0.5,0.7,0.7l11.4,17.1V215c0-0.4,0.1-0.7,0.4-1c0.3-0.3,0.6-0.4,1-0.4h6.5c0.4,0,0.7,0.1,1,0.4c0.3,0.3,0.4,0.6,0.4,1
		v32.3c0,0.4-0.1,0.7-0.4,1c-0.3,0.3-0.6,0.4-1,0.4H775.9z"/>
	<path d="M803.8,221.2c-1.1,0-2.1,0.2-2.9,0.5c-0.8,0.3-1.4,0.7-1.9,1.3c-0.5,0.5-0.8,1.2-1.1,1.9s-0.4,1.4-0.5,2.2
		c-0.1,0.4-0.1,1-0.1,1.8s0,1.6,0,2.4c0,0.8,0,1.6,0,2.4c0,0.8,0.1,1.4,0.1,1.8c0.1,0.8,0.2,1.5,0.5,2.2c0.3,0.7,0.6,1.3,1.1,1.8
		c0.5,0.5,1.1,1,1.9,1.3c0.8,0.3,1.7,0.5,2.8,0.5c0.9,0,1.7-0.1,2.4-0.3c0.8-0.2,1.4-0.5,2-1c0.6-0.4,1-1,1.4-1.7
		c0.3-0.7,0.5-1.6,0.5-2.6h-4.2c-0.4,0-0.7-0.1-1-0.4s-0.4-0.6-0.4-1V229c0-0.4,0.1-0.7,0.4-1c0.3-0.3,0.6-0.4,1-0.4H818
		c0.4,0,0.7,0.1,1,0.4c0.3,0.3,0.4,0.6,0.4,1v6.4c0,2.1-0.4,4.1-1.2,5.8c-0.8,1.7-1.9,3.1-3.3,4.3c-1.4,1.2-3,2.1-4.9,2.7
		c-1.9,0.6-3.9,0.9-6.1,0.9c-2.4,0-4.5-0.4-6.4-1.1s-3.5-1.7-4.8-2.9c-1.3-1.2-2.4-2.7-3.1-4.3c-0.7-1.7-1.1-3.4-1.2-5.2
		c-0.1-1.4-0.1-2.8-0.1-4.4s0-3.1,0.1-4.5c0.1-1.8,0.5-3.6,1.2-5.2c0.7-1.7,1.8-3.1,3.1-4.3c1.3-1.2,2.9-2.2,4.8-2.9
		c1.9-0.7,4-1.1,6.5-1.1c2.3,0,4.4,0.3,6.3,1c1.9,0.7,3.5,1.6,4.8,2.6c1.3,1.1,2.3,2.2,3,3.5c0.7,1.3,1.1,2.4,1.2,3.6
		c0,0.3-0.1,0.6-0.3,0.8c-0.2,0.2-0.5,0.3-0.8,0.3h-6.6c-0.5,0-0.9-0.1-1.2-0.4c-0.3-0.3-0.6-0.6-0.8-0.9c-0.5-0.6-1.1-1.2-1.9-1.7
		S805.5,221.2,803.8,221.2z"/>
	<path d="M823.9,226.7c0.1-1.9,0.5-3.6,1.2-5.3s1.7-3.1,3-4.3c1.3-1.2,2.9-2.2,4.8-2.9s4.1-1.1,6.5-1.1c2.4,0,4.6,0.4,6.5,1.1
		s3.5,1.7,4.8,2.9c1.3,1.2,2.3,2.6,3,4.3s1.1,3.4,1.2,5.3c0.1,1.4,0.1,2.9,0.1,4.5s0,3-0.1,4.4c-0.1,1.9-0.5,3.6-1.2,5.3
		s-1.7,3.1-3,4.3c-1.3,1.2-2.9,2.2-4.8,2.9c-1.9,0.7-4.1,1-6.5,1c-2.5,0-4.6-0.3-6.5-1c-1.9-0.7-3.5-1.7-4.8-2.9
		c-1.3-1.2-2.3-2.7-3-4.3s-1.1-3.4-1.2-5.3c-0.1-1.4-0.1-2.8-0.1-4.4S823.8,228.2,823.9,226.7z M845.8,235.4c0-0.6,0.1-1.3,0.1-2
		c0-0.7,0-1.5,0-2.3c0-0.8,0-1.5,0-2.2c0-0.7-0.1-1.4-0.1-1.9c-0.1-0.8-0.2-1.6-0.5-2.3c-0.3-0.7-0.7-1.3-1.2-1.8
		c-0.5-0.5-1.2-0.9-1.9-1.2c-0.8-0.3-1.7-0.5-2.7-0.5s-1.9,0.2-2.7,0.5c-0.8,0.3-1.4,0.7-1.9,1.2c-0.5,0.5-0.9,1.1-1.2,1.8
		c-0.3,0.7-0.5,1.5-0.5,2.3c-0.1,0.6-0.1,1.2-0.1,1.9c0,0.7,0,1.5,0,2.2c0,0.8,0,1.5,0,2.3c0,0.7,0.1,1.4,0.1,2
		c0.1,1.7,0.7,3,1.7,4.1c1,1.1,2.6,1.6,4.6,1.6c2.1,0,3.6-0.5,4.6-1.6S845.7,237,845.8,235.4z"/>
</g>
<g>
	<line x1="317" y1="91" x2="151.5" y2="191"/>
	<g>
		<line class="st0" x1="317" y1="91" x2="151.5" y2="191"/>
		<g>
			<g>
				<path class="st1" d="M157.5,199.1c-1.1,0.6-2.7,1.6-5,3.1c-1.1,0.7-1.6,0.4-3.1-1.3c-0.7-0.7-1,0.1-2.1,0.4
					c-1,0.2-2.3-1.7-2.3-1.7c-0.3-0.4-0.5-0.3-0.6-0.2c-2.4,3.3-7,3.3-6.9,3.7c0.4,2-1.3,2.8-1.8,2.5c0.5,0.7-0.3,2-0.7,2
					c-1.6,0.1-1.9-0.4-3-0.2c-2,0.3-2.1-0.7-3.6,0.2c-1.1,0.6-1.6,0.6-2,0.6c-1.8-0.4-1.7-2.5-1.3-3.4c-1-1-0.1-3.4-0.3-4.6
					c-0.5,0.3-1.4,0.7-2.8,1c-0.8,0.2-0.4,0.4-1.6,1c-1.6,0.8-2.2,1-2.8,1c-0.4,0-1.8,0.9-2.7,1.1c-2.6,1.1-3.5-1.3-3.6-1.5
					c0-0.1,0-0.1,0.4-0.4c0.6-0.3,1.5-1.3,2.5-1.7c0.4-0.2,0.8-0.6,1.7-1c0.9-0.8,1.9-1,2.8-2.2c0.1-0.2,0.2,0,0.6-0.2
					c0.2-0.2,0.1-0.3,0.7-0.6c0.8-0.4,1.7-1,2.5-1.5c0.9-0.5,1.5-1.1,3.5-2.6c0.8-0.6,1.3-1.4,2.1-1.5c1.3-0.1,5.6-0.7,10.3-1.1
					c0.1,0,0.5,0,0.4-0.6c-0.1-1,0.3-0.9,1.8-1.8c1-0.7-0.2-1,0.9-1.7c1.8-1,2.5-1.3,5-2.9c1-0.6,1.3-0.9,1.7-0.1l9.3,15.5
					C157.8,198.6,157.9,198.9,157.5,199.1z"/>
				<path class="st2" d="M111.9,202.9c0.4,0.7,1.5-0.2,2-0.6c0.3-0.2,0.2-0.9-0.2-0.8L111.9,202.9
					C111.9,202.8,111.9,202.9,111.9,202.9z"/>
				<path class="st2" d="M126.8,204.8c0.8-0.3,0.9,0,1.3-0.3c0.5-0.4-0.1-0.3,1.7-1.3c0.5-0.3,0.8-0.5,1.2-0.5
					c0.1-0.2,0.4-0.7,0.8-0.6c0.6-0.5,0.3-0.5,1.5-0.9c1.7-0.6,1.6-1.3,2.1-2.1c0.1-0.2,0.2-0.3,0.6-0.5c2.9-1.3,1.7-0.6,5.3-3.1
					c1.2-1,1.2-2,0.1-3.8c-1.3-1.9-1.6-1.4-3-1.2c-5.6,0.7-9.7,0.8-10.8,1.6c-3.3,2-2.3,2.3-6.7,4.8c-1.5,0.7-1,1.3-1.6,1.6
					c-0.5,0-0.3-0.4-1.6,0.5c-2.5,1.9-3.4,1.7-3.4,2.3c0,0.8,0.2,1.1-1.6,2c-0.2,0.1-0.2,0.1-0.3,0.1c-0.2,0.1-0.2,0.2,0.1,0.2
					c0.2,0,2.1-0.1,3.6-1.4c0.9-0.7,0.6-0.1,2.2-1c0.7-0.5,1.1-0.7,1.3-0.9c0.8-0.2,2.2-0.9,2.6-1.3c0.4-0.4,0.6-0.8,1.2-0.8
					c0.6,0,1.9-0.3,3.3-1.4c1.7-1.3,1.4-1.6,1.6-1.6c0.6,0.1,0.1,1.2,1.4,1.3c0.7,0.1,0.3-1.6,0.8-1.9c0.3-0.1,0.5,0.1,0.5,0.5
					c0,0.2,0,1.3,0.6,1.4c1.1,0.1,1.4-2.3,2.8-2.3c0.3,0,0.2,0.5-0.1,0.6c-0.5,0.2-1.1,1.2-1.2,1.7c-0.2,0.7-1.1,2.1-1.5,2.6
					c-1.3,1.7-2.1,1.5-2.2,2.1c-0.1,0.5-0.9,0.3-1.5,0.6c-1.2,0.5-3.3,3-2.7,3.4c0.2,0.1,0.4,0,0.6-0.2
					C126.4,205,126.4,205,126.8,204.8z"/>
				<path class="st2" d="M128.3,205.8c-0.6-0.4-0.7-0.5-1.3-0.3c-0.5,0.2-1.7,1.4-1.1,1.9c0.3,0.1,0.8-0.2,1.3-0.4
					C127.5,206.9,128.8,206.3,128.3,205.8z"/>
				<path class="st2" d="M147.9,200.1c-0.6,0.3-0.8,0-1.1-0.3c-0.4-0.4-1.3-2.8-2.9-5.6c-1.6-2.7-2.1-3.5-3.2-4.8
					c-0.2-0.3-0.8-0.6-0.3-0.9c1.6-1.1,2-1.5,3-0.4c1.2,1.3,4.7,7,6.2,10.3C149.5,198.8,150.1,199,147.9,200.1z"/>
			</g>
		</g>
	</g>
</g>
<g>
	<line x1="741.8" y1="91.1" x2="743.8" y2="161.5"/>
	<g>
		<line class="st0" x1="741.8" y1="91.1" x2="743.8" y2="161.5"/>
		<g>
			<g>
				<path class="st1" d="M753.9,160.2c0,1.3,0,3.1,0.2,5.9c0.1,1.3-0.4,1.6-2.7,2.1c-1,0.2-0.4,0.9-0.7,2c-0.3,1-2.6,1.2-2.6,1.2
					c-0.5,0-0.5,0.3-0.4,0.5c1.7,3.7-0.6,7.7-0.2,7.8c1.9,0.6,1.8,2.5,1.3,2.8c0.9-0.1,1.6,1.2,1.4,1.6c-0.7,1.5-1.3,1.5-1.6,2.5
					c-0.7,1.9-1.6,1.5-1.7,3.2c0,1.3-0.2,1.7-0.5,2c-1.3,1.4-3,0.3-3.6-0.5c-1.3,0.3-3-1.6-4.2-2c0,0.6-0.1,1.5-0.5,3
					c-0.2,0.7,0.1,0.6,0,1.9c-0.1,1.7-0.3,2.4-0.5,3c-0.1,0.3-0.1,2-0.3,2.9c-0.3,2.8-2.8,2.4-3.1,2.4c-0.1,0-0.1,0-0.1-0.6
					c0-0.7-0.4-2-0.2-3c0-0.4-0.2-1-0.1-2c-0.2-1.2,0-2.1-0.5-3.5c-0.1-0.2,0.1-0.2,0.1-0.6c0-0.3-0.2-0.2-0.2-1
					c0.1-0.8,0-1.9-0.1-3c0-1-0.3-1.8-0.5-4.3c-0.1-1-0.6-1.8-0.2-2.6c0.5-1.2,2.2-5.2,4.2-9.5c0-0.1,0.2-0.5-0.3-0.7
					c-0.9-0.5-0.6-0.7-0.6-2.4c-0.1-1.2-1-0.3-1-1.6c0-2,0.1-2.8,0-5.8c-0.1-1.2-0.1-1.5,0.7-1.6l18.1-0.5
					C753.6,159.7,753.9,159.8,753.9,160.2z"/>
				<path class="st2" d="M734.7,201.8c0.8,0.1,0.6-1.4,0.4-2c-0.1-0.3-0.6-0.6-0.8-0.2L734.7,201.8
					C734.6,201.7,734.7,201.8,734.7,201.8z"/>
				<path class="st2" d="M743.7,189.8c0.1-0.9,0.5-0.8,0.4-1.2c-0.1-0.6-0.3-0.1-0.3-2.1c0-0.6-0.1-0.9,0.2-1.3
					c-0.2-0.2-0.4-0.7-0.1-1c-0.2-0.7-0.3-0.5,0-1.8c0.3-1.7-0.4-2-0.8-2.8c-0.1-0.2-0.2-0.3-0.1-0.8c0.3-3.2,0.3-1.8-0.1-6.2
					c-0.3-1.5-1.2-2.1-3.2-2c-2.3,0.2-2,0.7-2.5,2c-2.2,5.3-4,8.8-3.9,10.2c0.2,3.8,0.8,3.1,0.8,8.2c-0.2,1.6,0.7,1.5,0.6,2.1
					c-0.2,0.5-0.5,0.1-0.3,1.6c0.4,3.1-0.1,3.8,0.4,4.1c0.7,0.4,1.1,0.3,1,2.4c0,0.2,0,0.2,0,0.3c-0.1,0.3,0.1,0.3,0.3,0
					c0.1-0.2,0.9-1.9,0.5-3.8c-0.2-1.1,0.2-0.5,0.2-2.4c-0.1-0.8-0.1-1.3-0.1-1.6c0.3-0.8,0.3-2.4,0.1-2.9c-0.2-0.6-0.4-0.9-0.1-1.5
					c0.3-0.6,0.7-1.8,0.4-3.6c-0.3-2.1-0.7-2-0.6-2.2c0.4-0.5,1.1,0.5,1.8-0.6c0.4-0.5-1.3-1.1-1.2-1.6c0-0.3,0.3-0.4,0.7-0.2
					c0.2,0.1,1.1,0.7,1.5,0.1c0.6-0.9-1.3-2.3-0.6-3.6c0.2-0.3,0.5,0,0.5,0.3c-0.1,0.6,0.5,1.5,0.9,1.9c0.5,0.5,1.3,2,1.5,2.5
					c0.9,1.9,0.3,2.6,0.8,2.9c0.4,0.3-0.2,0.9-0.3,1.6c-0.2,1.3,1,4.3,1.6,4c0.2-0.1,0.2-0.3,0.1-0.6
					C743.6,190.2,743.6,190.1,743.7,189.8z"/>
				<path class="st2" d="M745.3,189c-0.6,0.3-0.7,0.4-0.8,1c-0.1,0.6,0.4,2.1,1.1,1.9c0.2-0.2,0.2-0.8,0.3-1.3
					C745.9,190.2,746,188.7,745.3,189z"/>
				<path class="st2" d="M750,169.1c0,0.6-0.4,0.7-0.8,0.8c-0.6,0.2-3.1-0.2-6.3-0.2c-3.2,0-4.1,0.2-5.8,0.4c-0.4,0-0.9,0.4-1-0.2
					c-0.2-1.9-0.3-2.5,1.2-2.8c1.7-0.4,8.4-0.6,12-0.3C749.6,167,750.1,166.6,750,169.1z"/>
			</g>
		</g>
	</g>
</g>
<g>
	<line x1="505.1" y1="91" x2="381.4" y2="174"/>
	<g>
		<line class="st0" x1="505.1" y1="91" x2="381.4" y2="174"/>
		<g>
			<g>
				<path class="st1" d="M359,187.3l0.7-0.5c-0.9-0.4-1.6-3.6,0.7-4.7c-1.2-1.2-0.6-2.8,1-3.4c1.3-0.5,2.1-0.8,3.9-2.5
					c2.2-2.1,4.6-4.8,8.7-5.1c0.4,0,0.6-0.4,0.5-0.6c-0.1-0.4-0.8-1.3,0-1.9l3-2c1.1-0.7,3,0.3,6.3,5.3c3.5,5.2,4.8,7.3,2.6,8.8
					c-2.1,1.4-2.7,1.8-2.7,1.8c-0.7,0.4-1.1,0.1-1.4-0.2c-0.2-0.1-0.5,0-0.6,0.2c-0.2,0.3-2.1,3.2-4.2,5c-2,1.7-2.4,2.9-4,3.6
					c-1.9,0.9-7.3,4.8-8.9,5.9c-1.6,1.1-4.5,2.3-7.9,4.7c-3.2,2.3-5.8-1.5-2.7-3.3c2.4-1.4,2.3-1.8,3.2-2.2c1.5-0.8,3-2,4-2.8
					c0.5-0.4,1.1-0.6,2.5-1.7c-0.9,0.4-1.1,0.1-2.6,0.4C358.7,192.3,357.5,188.4,359,187.3z"/>
				<path class="st2" d="M379.8,175.3c-1.3-2.1-4.1-5.4-4.5-5.7c-0.3-0.2-0.2-0.6,0.3-0.8c0.3-0.2,2-1.3,2-1.3
					c0.7-0.5,2.1-0.3,5.8,5.2c3.8,5.8,4.1,6.6,2.4,7.8l-2.1,1.3c-0.1,0.1-0.3,0.1-0.4,0C382.7,181.5,383.1,180.6,379.8,175.3z"/>
				<path class="st2" d="M374.5,178c0-0.2,0-0.3-0.1-0.4c-0.4-0.2-0.7,0.3-1,0.6c-0.3,0.2-1.6,1.4-2.3,1.4c-0.8,0-2.3,0.1-3.6-1.2
					c-0.2-0.2-1.2-0.7-2.1-0.5c-0.6,0.2-0.9-0.4-0.5-0.7c1.1-0.9,1.1-1.6,4.6-3.9c2.9-1.7,5.9-2.9,8.5,0.7c1.4,2,3.3,4.9,3.6,6.1
					c0.4,1.3-0.5,1.8-0.9,2.7c-2.2,3.4-4.3,4.7-5.8,6.3c-0.6,0.6-0.9,1.2-2.2,1.2c-2.7-0.1-5.2,1-6,1c-0.5,0-0.7,0-0.9-0.1
					c-0.2-0.2-0.6,0.1-1.2,0c-0.3,0-0.5,0-0.8,0c0-0.6,0.6-0.3,0.5-1.5c0-0.2-0.4-0.5-0.5-0.6c-0.4-0.2-1.2,0.2-1.6,0.4
					c-0.3,0.1-0.6,0.3-0.9,0.4c-0.8,0.3-0.5,1.2-0.7,1c-1-1.2,0.9-2.1,1.6-2.4c0.6-0.3,1.3-0.4,1.9-0.6c0.4,0,1.7-0.8,2.3,0.1
					c0.1,0.1,0.3,0.5,0.6,0.1c0.2-0.3,1.7-1.3,2.2-1c0.2,0.1,0.4,0.2,0.7,0.1c0.3,0,0.3-0.3,0.1-0.5c-0.2-0.3-0.5-0.7-0.1-1.1
					c0.3-0.4,0.5-0.5,0.9-0.5c0.4,0,1.2-0.1,1.4-0.2c0.2-0.2,0.2-0.5-0.4-0.4c-0.6,0.1-1.5-0.3-1.3-1.5c0.3-1.9-0.1-1.7,3.6-4.4
					C374.4,178.3,374.5,178.2,374.5,178z"/>
				<path class="st2" d="M368.2,182.1c0.9,0.3,1.5,0.3,1.4,1.2c0,0.2-0.1,0.3-0.7,0.5c-0.3,0.1-1.8-0.3-1.5-1.5
					C367.5,182.1,367.7,181.9,368.2,182.1z"/>
				<path class="st2" d="M367.7,179.6c0.2-0.3,1.7,0.8,1.7,0.9c0.1,0.2,0.1,0.3-0.5,0.8c-0.3,0.2-1.2,0-1.5-0.6
					C367.2,180.2,367.7,179.6,367.7,179.6z"/>
				<path class="st2" d="M367.6,184.8c0.5,0.1,1.4,0.3,1.5,0.7c0,0.5-0.1,0.8-0.9,1c-0.5,0.1-1.8,0-1.5-1.4
					C366.9,184.8,366.9,184.7,367.6,184.8z"/>
				<path class="st2" d="M360.9,181.8c-1.7-1.5,0.4-2.7,1.6-2.8c1.8-0.1,3.1-0.7,3.9-0.4c0.4,0.1,1.3,0.6,1,0.9
					c-0.3,0.3-0.4,0.7-0.5,1c0,0.1,0.4,0.5,0.3,0.6c-0.1,0-0.3-0.6-2-0.4c-0.7,0.1-2.2,0.4-2.7,0.6c-0.4,0.1-0.8,0.2-1.4,0.5
					C361,181.8,361,181.8,360.9,181.8z"/>
				<path class="st2" d="M360.4,186.3c1.4-0.8,1.9-1.3,2.2-1.5c1.6-1.3,2.8-1.2,3.4-0.9c0.6,0.1,0.8,0.3,1.3,0.3
					c0.3,0,0.8,0.2,0.3-0.2c-0.3-0.2-0.6-0.3-0.7-0.9c0-0.4-0.1-0.6,0.2-1.3c0-0.1,0.1-0.1,0-0.1c-0.2,0-1-0.8-2.7-0.2
					c-2.2,0.8-3.4,0.9-3.8,1.1c-0.1,0-0.2,0.1-0.3,0.2c-0.6,0.4-0.7,0.7-0.8,0.9c-0.1,0.3-0.5,1.7,0.4,2.6
					C360.2,186.3,360.3,186.3,360.4,186.3z"/>
				<path class="st2" d="M360,191.1c-0.1,0.1-1.7-1.8-0.7-3.3c0.5-0.7,1-0.8,1.7-1.3c1.2-0.7,2.1-1.5,2.6-1.8c0.7-0.5,1.4-0.7,2-0.5
					c0.3,0.1,1,0.1,0.8,0.4c-0.2,0.3-0.4,0.5-0.3,1.1c0.1,0.8,0.8,1,0.3,1.1c-0.4,0.1-0.5,0.1-1,0.1c-2-0.1-7,1.8-5.4,3.9
					C360.2,191,360.1,191.2,360,191.1z"/>
				<path class="st2" d="M363.2,191.2c-0.2,0.2-0.5,0.2-0.7,0.2c-0.3,0.1-1.4,0.5-1.4-0.3c0.1-0.9,1.7-1.3,2.3-1.4
					c0.2,0,0.4,0,0.5,0.2C364,190,364.1,190.5,363.2,191.2z"/>
				<path class="st2" d="M358.5,199.7c1-0.7,3.9-1.8,5-2.9c1.8-0.8,4.3-2.9,5.2-3.4c0.8-0.5,2.6-1.5,3.7-2.5c-0.4,0.1-2.3,0-4.6,0.8
					c-0.8,0.3-1.5,0.3-2.5,0c-1.5,0.7-3.5,1.9-3.5,2.2c0,0.1,0.1,0.2-0.2,0.4c-0.3,0.1-0.2,0-0.6,0.2c-2.2,1.4-3.3,2.2-3.3,2.2
					c-0.5,0.3-0.2,0.4-0.3,0.6c-0.1,0.1-0.1-0.1-0.7,0.2c-0.3,0.1-1,0.5-2.9,1.8c-1.7,1.1-0.4,3.9,2.5,2.1
					C358.3,200,358.2,199.9,358.5,199.7z"/>
			</g>
		</g>
	</g>
</g>
<g>
	<line x1="523.6" y1="91" x2="537.7" y2="164.9"/>
	<g>
		<line class="st0" x1="523.6" y1="91" x2="537.7" y2="164.9"/>
		<g>
			<g>
				<path class="st1" d="M541.1,190.7l-0.2-0.8c-0.7,0.7-4,0.1-4-2.5c-1.6,0.6-2.9-0.6-2.7-2.2c0.1-1.4,0.1-2.3-0.8-4.6
					c-1.1-2.9-2.7-6.1-1.3-10c0.1-0.3-0.1-0.7-0.3-0.7c-0.4-0.1-1.5,0.2-1.7-0.7l-0.7-3.6c-0.2-1.3,1.4-2.6,7.3-3.8
					c6.2-1.2,8.6-1.5,9.1,1c0.5,2.5,0.6,3.2,0.6,3.2c0.1,0.8-0.4,1-0.7,1.2c-0.2,0.1-0.2,0.4-0.1,0.6c0.2,0.3,2.2,3.2,3,5.9
					c0.7,2.5,1.7,3.3,1.8,5.1c0.1,2.1,1.5,8.6,1.9,10.5c0.4,1.9,0.4,5.1,1.2,9.1c0.8,3.9-3.7,4.7-4.1,1.2c-0.4-2.8-0.7-2.8-0.8-3.8
					c-0.1-1.7-0.7-3.5-1-4.8c-0.2-0.6-0.1-1.3-0.6-3c0,1-0.3,1.1-0.7,2.6C545.6,192.9,541.6,192.5,541.1,190.7z"/>
				<path class="st2" d="M538.2,166.9c-2.5,0.4-6.6,1.7-7,1.9c-0.3,0.2-0.6,0-0.7-0.6c0-0.4-0.4-2.3-0.4-2.3c-0.2-0.8,0.5-2,7.1-3.3
					c6.8-1.2,7.7-1.1,8.1,0.9l0.4,2.5c0,0.2-0.1,0.3-0.2,0.4C545.1,166.6,544.4,165.9,538.2,166.9z"/>
				<path class="st2" d="M538.7,172.8c-0.1-0.1-0.3-0.1-0.4,0c-0.4,0.3,0,0.7,0.1,1.1c0.1,0.3,0.7,2,0.4,2.7
					c-0.3,0.7-0.8,2.1-2.5,2.9c-0.3,0.1-1.2,0.9-1.3,1.7c-0.1,0.6-0.7,0.6-0.8,0.1c-0.4-1.3-1-1.6-1.8-5.8c-0.4-3.3-0.4-6.5,3.9-7.6
					c2.4-0.5,5.8-1.1,7.1-0.9c1.3,0.1,1.5,1.1,2.1,1.9c2.3,3.4,2.7,5.8,3.5,7.8c0.3,0.8,0.8,1.3,0.2,2.5c-1.1,2.5-1.1,5.2-1.5,5.9
					c-0.2,0.5-0.3,0.6-0.5,0.7c-0.2,0.2-0.2,0.6-0.4,1.1c-0.1,0.3-0.2,0.4-0.3,0.7c-0.5-0.3-0.1-0.7-1.2-1c-0.2-0.1-0.6,0.1-0.8,0.2
					c-0.4,0.3-0.3,1.2-0.3,1.6c0,0.3,0,0.6,0,1c0,0.9,0.9,1,0.6,1c-1.5,0.5-1.6-1.7-1.6-2.4c-0.1-0.7,0.2-1.3,0.2-2
					c0.2-0.3-0.1-1.9,1-2.1c0.2-0.1,0.6-0.1,0.3-0.6c-0.2-0.3-0.5-2.1-0.1-2.5c0.2-0.2,0.3-0.3,0.4-0.6c0.1-0.3-0.1-0.4-0.4-0.3
					c-0.4,0.1-0.9,0.2-1.1-0.3c-0.2-0.4-0.3-0.7-0.1-1c0.1-0.4,0.4-1.1,0.3-1.4c-0.1-0.2-0.3-0.4-0.5,0.2c-0.2,0.5-0.9,1.3-2,0.6
					c-1.6-1-1.7-0.6-2.7-5C538.9,173,538.8,172.9,538.7,172.8z"/>
				<path class="st2" d="M540,180.2c0.6-0.7,0.8-1.2,1.6-0.8c0.2,0,0.2,0.2,0.2,0.8c0,0.3-1,1.5-2,0.8
					C539.7,180.8,539.5,180.6,540,180.2z"/>
				<path class="st2" d="M537.4,179.7c-0.2-0.3,1.4-1.2,1.5-1.2c0.2,0,0.3,0,0.5,0.7c0.1,0.3-0.5,1.1-1.2,1.1
					C537.8,180.3,537.5,179.7,537.4,179.7z"/>
				<path class="st2" d="M542.2,181.8c0.3-0.4,0.8-1.2,1.2-1.1c0.5,0.2,0.7,0.4,0.6,1.2c-0.1,0.5-0.7,1.6-1.9,0.8
					C541.9,182.5,541.8,182.4,542.2,181.8z"/>
				<path class="st2" d="M536.8,186.8c-2.1,0.9-2.3-1.5-2-2.5c0.6-1.7,0.6-3.1,1.1-3.7c0.3-0.4,1.1-1,1.2-0.5
					c0.1,0.4,0.5,0.7,0.7,0.8c0.1,0.1,0.7-0.2,0.7,0c0,0.1-0.6,0.1-1.1,1.7c-0.2,0.7-0.5,2.2-0.5,2.7c0,0.4-0.1,0.8-0.1,1.5
					C536.9,186.7,536.8,186.7,536.8,186.8z"/>
				<path class="st2" d="M540.7,189c-0.2-1.6-0.4-2.3-0.5-2.7c-0.6-2,0-3,0.5-3.5c0.3-0.5,0.6-0.7,0.8-1c0.2-0.3,0.5-0.7-0.1-0.4
					c-0.3,0.1-0.5,0.5-1.1,0.3c-0.4-0.1-0.6-0.1-1.1-0.7c0-0.1-0.1-0.1-0.1-0.1c-0.1,0.2-1.1,0.6-1.3,2.4c-0.2,2.3-0.5,3.4-0.5,3.9
					c0,0.1,0,0.2,0.1,0.3c0.2,0.7,0.3,0.9,0.5,1.1c0.2,0.2,1.4,1.1,2.5,0.6C540.7,189.2,540.7,189.1,540.7,189z"/>
				<path class="st2" d="M545.1,191.3c0,0.2-2.3,0.9-3.3-0.7c-0.5-0.8-0.3-1.3-0.5-2.1c-0.2-1.4-0.5-2.5-0.6-3.1
					c-0.1-0.8-0.1-1.5,0.3-2.1c0.2-0.3,0.5-0.9,0.7-0.5c0.2,0.3,0.3,0.5,0.9,0.7c0.8,0.2,1.2-0.4,1.1,0.1c-0.1,0.4-0.1,0.4-0.3,0.9
					c-0.8,1.8-1.1,7.1,1.5,6.5C545,191.1,545.2,191.2,545.1,191.3z"/>
				<path class="st2" d="M546.3,188.4c0.1,0.3-0.1,0.6-0.1,0.8c-0.1,0.3-0.1,1.5-0.8,1.1c-0.8-0.4-0.5-2.1-0.4-2.6
					c0.1-0.2,0.2-0.4,0.4-0.4C545.6,187.2,546.1,187.2,546.3,188.4z"/>
				<path class="st2" d="M552.3,196c-0.3-1.2-0.2-4.3-0.7-5.7c0-1.9-1-5.1-1.1-6.2c-0.2-0.9-0.4-3-0.8-4.4c-0.1,0.4-0.9,2.1-1.1,4.5
					c0,0.8-0.3,1.5-1,2.3c0,1.7,0.4,4,0.6,4.1c0.1,0,0.2,0,0.2,0.3c0,0.3-0.1,0.1,0,0.6c0.4,2.5,0.7,3.9,0.7,3.9
					c0.1,0.6,0.3,0.3,0.4,0.5c0.1,0.2-0.1,0.1-0.1,0.7c0,0.3,0.1,1.1,0.5,3.4c0.3,2,3.4,1.9,2.9-1.5
					C552.5,196.3,552.3,196.4,552.3,196z"/>
			</g>
		</g>
	</g>
</g>
</svg>
