<?xml version="1.0" encoding="utf-8"?>
<!-- Generator: Adobe Illustrator 21.0.0, SVG Export Plug-In . SVG Version: 6.00 Build 0)  -->
<svg version="1.1" id="Layer_1" xmlns="http://www.w3.org/2000/svg" xmlns:xlink="http://www.w3.org/1999/xlink" x="0px" y="0px"
	 viewBox="0 0 1300 1300" style="enable-background:new 0 0 1300 1300;" xml:space="preserve">
<style type="text/css">
	.st0{display:none;}
	.st1{display:inline;}
	.st2{fill:#E5E9F3;}
	.st3{display:inline;fill:#BCC1E2;}
	.st4{display:inline;fill:#E5E9F3;}
	.st5{display:inline;fill:#D0E4EF;}
	.st6{display:inline;fill:#78ADD0;}
	.st7{fill:#78ADD0;}
	.st8{display:inline;fill:#E2DAED;}
	.st9{display:inline;fill:#42436E;}
	.st10{display:inline;fill:#FFFFFF;}
	.st11{display:inline;fill:#A0D3F0;}
	.st12{display:inline;fill:#512512;}
	.st13{display:inline;fill:#4DB174;}
	.st14{display:inline;fill:#009B5A;}
	.st15{fill:#AE5351;}
	.st16{fill:#9F3B3F;}
	.st17{fill:#F8A586;}
	.st18{fill:#F1C3A7;}
	.st19{fill:#DCAD8C;}
	.st20{fill:#81C3EB;}
	.st21{fill:#9FD5F4;}
	.st22{fill:#8FC2E4;}
	.st23{fill:#C89E85;}
	.st24{fill:#F79B74;}
	.st25{fill:#382E81;}
	.st26{fill:#34256A;}
	.st27{fill:#512512;}
	.st28{fill:#EF4444;}
	.st29{fill:#F15D55;}
	.st30{display:none;fill:#00AFA5;}
	.st31{display:none;fill:#FFFFFF;}
	.st32{display:none;fill:#B194C5;}
	.st33{display:none;fill:#00A98C;}
	.st34{display:none;fill:#00AD9A;}
	.st35{display:none;fill:#9371B2;}
	.st36{display:none;fill:#A782BB;}
	.st37{display:inline;fill:#EF427B;}
	.st38{display:inline;fill:#F06194;}
	.st39{fill:#FFFFFF;}
	.st40{display:none;fill:#FAA327;}
	.st41{display:none;fill:#FFD01A;}
	.st42{display:none;fill:#7475B7;}
	.st43{display:none;fill:#7F82BE;}
	.st44{display:inline;fill:#B5B5B6;}
	.st45{display:inline;fill:#CECECD;}
	.st46{display:inline;fill:#E7E7E7;}
	.st47{display:inline;fill:#F3F3F3;}
</style>
<g class="st0">
	<g class="st1">
		<path class="st2" d="M158,666.7c0,0,5,224.5,5,229.4s12.2,8,12.9,0c0.7-8,2.7-217.4,2.7-217.4L158,666.7z"/>
		<path class="st2" d="M680.9,964.4c0,0,4.6,206,4.6,210.9s12.2,8,12.9,0c0.7-8,4.2-210.5,4.2-210.5S692.1,966.4,680.9,964.4z"/>
		<path class="st2" d="M855.5,879.1c0,0,4.3,192.4,4.3,197.3c0,4.9,12.2,8,12.9,0c0.7-8,4.2-210.5,4.2-210.5L855.5,879.1z"/>
	</g>
	<path class="st3" d="M889.4,830.2c0,0-489.9-280.3-518.4-299.9c-29.7-20.4-51.1-15.8-69.6-6.5c-18.6,9.3-142.1,78-159.8,88.2
		c-4.2,2.4-8,5.3-11,8.4l-7.6-2.1v16.2c-0.1,1.1-0.1,2.1,0,3.2v0l0,0c0.5,5.3,3.9,10.5,11.2,15.2c0,0,15.5,9,41.1,23.9l-7-4.1v228.1
		c3.4,0.7,7.2-0.3,7.6-4.7c0.7-8,2.7-217.4,2.7-217.4c121.6,70.7,452.3,262.9,472.7,275c13.5,8,27.6,11.4,40.4,11.7v214.8
		c3.1,0.4,6.3-0.9,6.6-4.8c0.7-7.8,4-200.2,4.2-210.5c6.6-0.8,12.5-2.4,17.5-4.7c13.9-6.2,112.8-67.1,146-87.6v208.6
		c3.1,0.4,6.3-0.9,6.6-4.8c0.7-8,4.2-210.5,4.2-210.5l0,0c10.9-5.2,12.1-11.2,12.5-19.4l0,0v0C889.4,845.9,889.4,830.2,889.4,830.2z
		"/>
	<path class="st4" d="M134.2,636.6c-20.4-13-10.4-30.6,7.4-40.9c17.7-10.2,141.2-78.9,159.8-88.2c18.6-9.3,39.9-13.9,69.6,6.5
		c29.7,20.4,495.8,288.8,509.7,299c13.9,10.2,11.1,29.7-8.4,39c-19.5,9.3-135.6,84.5-152.3,91.9c-16.7,7.4-43.6,8.4-68.7-6.5
		C626.3,922.6,134.2,636.6,134.2,636.6z"/>
</g>
<g class="st0">
	<path class="st5" d="M545.6,744.7c9.6,5.9,5.5,7.9,0,11c-5.5,3.1-39.2,25.1-45.4,28.6c-6.2,3.4-10,5.9-23.4-1.7
		c-13.4-7.6-162.1-92.9-169.3-97.7c-7.2-4.8-9.1-7.1,1.2-14.6c10.3-7.6,39.5-26.3,43.9-29.1c5-3.2,6.5-5.2,16.6,2.3
		C381,652.2,545.6,744.7,545.6,744.7z"/>
	<path class="st6" d="M551.3,750.7c-0.1,1.9-2.7,3.3-5.8,5c-5.5,3.1-39.2,25.1-45.4,28.6c-6.2,3.4-10,5.9-23.4-1.7
		c-13.4-7.6-162.1-92.9-169.3-97.7c-3.9-2.6-6.2-4.4-6-6.7l0,0v6.5l0,0c0.1,2.1,2.3,3.9,6,6.3c7.2,4.8,155.9,90.2,169.3,97.7
		c13.4,7.6,17.2,5.2,23.4,1.7c6.2-3.4,39.9-25.5,45.4-28.6c3-1.7,5.6-3.1,5.8-5l0,0L551.3,750.7L551.3,750.7z"/>
	<g class="st1">
		<g>
			<polygon class="st7" points="320.5,684.5 330,677.8 347.9,688.4 338.4,695.1 			"/>
		</g>
		<g>
			<polygon class="st7" points="337.2,678.9 344.9,673.5 359.4,682.2 351.7,687.6 			"/>
			<polygon class="st7" points="355,689.3 362.7,683.9 377.3,692.6 369.6,698 			"/>
			<polygon class="st7" points="372.9,699.7 380.6,694.3 395.1,702.9 387.4,708.4 			"/>
			<polygon class="st7" points="390.7,710.1 398.4,704.6 413,713.3 405.3,718.8 			"/>
			<polygon class="st7" points="408.6,720.5 416.3,715 430.8,723.7 423.1,729.2 			"/>
			<polygon class="st7" points="426.4,730.9 434.1,725.4 448.7,734.1 441,739.6 			"/>
			<polygon class="st7" points="444.3,741.3 452,735.8 466.5,744.5 458.8,750 			"/>
		</g>
		<g>
			<polygon class="st7" points="340.5,667.2 348.2,661.7 362.7,670.4 355,675.8 			"/>
			<polygon class="st7" points="358.2,677.5 365.9,672 380.4,680.7 372.8,686.1 			"/>
			<polygon class="st7" points="375.9,687.8 383.6,682.3 398.2,691 390.5,696.5 			"/>
			<polygon class="st7" points="393.6,698.1 401.3,692.6 415.9,701.3 408.2,706.8 			"/>
			<polygon class="st7" points="411.3,708.4 419,702.9 433.6,711.6 425.9,717.1 			"/>
			<polygon class="st7" points="429,718.7 436.7,713.2 451.3,721.9 443.6,727.4 			"/>
			<polygon class="st7" points="446.7,729 454.4,723.5 469,732.2 461.3,737.7 			"/>
			<polygon class="st7" points="464.5,739.3 472.2,733.8 486.7,742.5 479,748 			"/>
			<polygon class="st7" points="482.2,749.6 489.9,744.1 504.4,752.8 496.7,758.3 			"/>
		</g>
		<g>
			<polygon class="st7" points="347.9,658.1 355.6,652.7 370.1,661.3 362.5,666.8 			"/>
			<polygon class="st7" points="365.6,668.4 373.3,663 387.9,671.7 380.2,677.1 			"/>
			<polygon class="st7" points="383.3,678.7 391,673.3 405.6,682 397.9,687.4 			"/>
			<polygon class="st7" points="401,689.1 408.7,683.6 423.3,692.3 415.6,697.7 			"/>
			<polygon class="st7" points="418.7,699.4 426.4,693.9 441,702.6 433.3,708 			"/>
			<polygon class="st7" points="436.4,709.7 444.2,704.2 458.7,712.9 451,718.3 			"/>
			<polygon class="st7" points="454.2,720 461.9,714.5 476.4,723.2 468.7,728.6 			"/>
			<polygon class="st7" points="471.9,730.3 479.6,724.8 494.1,733.5 486.4,738.9 			"/>
			<polygon class="st7" points="489.6,740.6 497.3,735.1 511.8,743.8 504.1,749.3 			"/>
		</g>
		<g>
			<polygon class="st7" points="351.6,646.3 359.3,640.8 373.9,649.5 366.2,654.9 			"/>
			<polygon class="st7" points="369.3,656.6 377,651.1 391.6,659.8 383.9,665.2 			"/>
			<polygon class="st7" points="387,666.9 394.7,661.4 409.3,670.1 401.6,675.5 			"/>
			<polygon class="st7" points="404.7,677.2 412.4,671.7 427,680.4 419.3,685.9 			"/>
			<polygon class="st7" points="422.4,687.5 430.1,682 444.7,690.7 437,696.2 			"/>
			<polygon class="st7" points="440.2,697.8 447.9,692.3 462.4,701 454.7,706.5 			"/>
			<polygon class="st7" points="457.9,708.1 465.6,702.6 480.1,711.3 472.4,716.8 			"/>
			<polygon class="st7" points="475.6,718.4 483.3,712.9 497.8,721.6 490.1,727.1 			"/>
			<polygon class="st7" points="493.3,728.7 501,723.2 515.5,731.9 507.8,737.4 			"/>
		</g>
		<g>
			<polygon class="st7" points="462.4,752 470.1,746.5 505.5,767.7 497.8,773.1 			"/>
		</g>
		<g>
			<polygon class="st7" points="510.3,738.7 518,733.2 541.7,747.2 534,752.7 			"/>
		</g>
		<g>
			<polygon class="st7" points="501.2,759.7 510.3,753.3 507.5,751.5 515.5,745.9 528.6,753.7 510.3,765.3 			"/>
		</g>
		<g>
			<polygon class="st7" points="435.8,752 439.7,749.3 454.2,757.9 450.4,760.7 			"/>
		</g>
		<g>
			<polygon class="st7" points="452.3,761.7 456.2,759 470.7,767.7 466.9,770.4 			"/>
		</g>
		<g>
			<polygon class="st7" points="469.8,771.9 473.7,769.1 488.2,777.8 484.4,780.6 			"/>
		</g>
		<g>
			<polygon class="st7" points="458.5,757.7 462.3,755 476.8,763.7 473,766.4 			"/>
		</g>
		<g>
			<polygon class="st7" points="342.9,697.7 352.4,691.1 435.8,740.4 426.4,747.1 			"/>
		</g>
	</g>
</g>
<g class="st0">
	<path class="st6" d="M1144.4,824.3c35.5,17,51.6-11.4,51.6-36s0-308.5,0-354.8c0-46.3,9.1-70.2-34.4-100.3
		C1109,297,647.8,39.8,618,21.1c-30.7-19.3-48.6,1.2-47.6,35.2C571.2,84,1108.9,807.3,1144.4,824.3z"/>
	<path class="st8" d="M570.2,424.2c0,47.8,7.7,80.2,60.2,106.4c52.4,26.2,473.6,274.6,509,291.5c35.5,17,37-18.5,37-43.2
		c0-24.7,0-308.5,0-354.8c0-46.3,9.3-57.1-44.7-91c-54-33.9-490.5-285.4-521.4-302.3c-30.9-17-40.1,4.6-40.1,32.4
		C570.2,91,570.2,424.2,570.2,424.2z"/>
	<path class="st9" d="M1131.7,333.2c-54-33.9-490.5-285.4-521.4-302.3c-30.9-17-40.1,4.6-40.1,32.4c0,21.2,0,267.7,0,361L1176.4,779
		c0-89.6,0-318.8,0-354.8C1176.4,377.9,1185.7,367.1,1131.7,333.2z"/>
	<polygon class="st10" points="599.5,394.9 1146.4,712.3 1146.4,385.6 599.5,61.7 	"/>
</g>
<g class="st0">
	<path class="st6" d="M386.7,554.1l6.5,55c0,8,13.3,14.4,29.6,14.4s29.6-6.4,29.6-14.4l6.5-55H386.7z"/>
	<ellipse class="st11" cx="422.9" cy="554.1" rx="36.1" ry="17.5"/>
	<ellipse class="st12" cx="422.9" cy="554.1" rx="29.6" ry="14.4"/>
	<path class="st13" d="M440.1,551.6c0,5.7-8.2,10.3-18.3,10.3s-18.3-4.6-18.3-10.3c0-5.7-3.1-47,18.3-47
		C445.3,504.7,440.1,545.9,440.1,551.6z"/>
	<path class="st14" d="M421.7,561.9c10.1,0,18.3-4.6,18.3-10.3c0-4.6,3.3-31.8-7.4-42.6c11.8,54.5-29.3,42.6-29.3,42.6
		C403.4,557.3,411.6,561.9,421.7,561.9z"/>
</g>
<g>
	<path class="st15" d="M388.9,1065.8c0,0-10.7,3.2-11.2,21.8c-0.5,18.6-1.2,34,11.2,34.9c12.4,0.9,34.2-10.9,41-11.3
		c6.8-0.5,54-6.3,51.2-24.5c-2.7-18.1-16.3-20.9-34.5-15.4c-18.1,5.4-19.6-7.7-23.9-7.7L388.9,1065.8z"/>
	<path class="st16" d="M483.7,1093c-0.8-5.2-2.6-6.4-2.6-6.4c2.7,18.1-44.4,24-51.2,24.5c-6.8,0.5-28.6,12.2-41,11.3
		c-9.2-0.7-11.2-9.3-11.4-21.4c-3.1,16.2-1.1,26.9,11.4,28.5c15.1,1.9,35.6-12.8,42.6-13.3C438.5,1115.9,486.5,1111.1,483.7,1093z"
		/>
	<path class="st15" d="M458.4,1105.4c0,0-10.7,3.2-11.2,21.8c-0.5,18.6-1.2,34,11.2,34.9c12.4,0.9,34.2-10.9,41-11.3
		c6.8-0.5,54-6.3,51.2-24.5c-2.7-18.1-16.3-20.9-34.5-15.4c-18.1,5.4-19.6-7.7-23.9-7.7L458.4,1105.4z"/>
	<path class="st16" d="M553.2,1132.6c-0.8-5.2-2.6-6.4-2.6-6.4c2.7,18.1-44.4,24-51.2,24.5c-6.8,0.5-28.6,12.2-41,11.3
		c-9.2-0.7-11.2-9.3-11.4-21.4c-3.1,16.2-1.1,26.9,11.4,28.5c15.1,1.9,35.6-12.8,42.6-13.3C508.1,1155.5,556.1,1150.7,553.2,1132.6z
		"/>
	<path class="st17" d="M458.4,1073.7c0,0,0,33.1,0,37.4s24.8,10.9,33.9-4.2v-46.4L458.4,1073.7z"/>
	<path class="st18" d="M450.2,1086.6c0,0,1.3-4.8,4.2-4.1c8.4,2.2,43.6-15.8,50-10.1l0.9,17c0,0-25,29.5-56.5,11.4L450.2,1086.6z"/>
	<path class="st19" d="M453.5,1075.5v8.6c0,0,21.8,11.7,47.5-9.9v-17.5L453.5,1075.5z"/>
</g>
<g>
	<path class="st20" d="M116.6,799.9c3.6-42.2,25.6-43.1,35.6-37.6c10,5.4,118.2,75.2,124.8,86c7.9,12.9,24,141.5,68.4,140.7
		c35.4-0.6,30.6-40.2,54.2-50.2c23.6-10,120-43.4,140.9-37.9c20.9,5.4,26.6,27.1,24.8,46.1c-1.8,19-5.1,86.9-20,89.6
		c-4.5,0.8-208,95.8-294.2,51.4c-86.2-44.4-124.3-85.8-128.8-158.1C117.7,857.5,116.6,799.9,116.6,799.9z"/>
	<path class="st21" d="M537,909.5c-20.9-5.4-108.8,31.7-132.4,41.8c-23.6,10-20.9,47.1-65.3,48c-44.4,0.9-64.8-131.5-72.6-144.2
		c-6.6-10.8-110.6-77.1-120.6-82.5c-10-5.4-29,1.8-29.9,32.7c0,0-4.5,62.6,0,134.9c1.9,30.2,9.7,55,24.4,76.9
		c-5,9.6-78.3,150.9-79.4,156.1c-1.1,5.4,4.7,10.1,8.9,5c3.6-4.4,63.9-117.2,80.3-148c20.9,24.7,51.7,46,94.5,68
		c19.4,10,45.1,12.5,73.4,10.4l-0.4,0c0,0,6.3,177.8,8.1,183.2c1.8,5.4,9.7,6.8,11,0c1.3-6.8-3.1-184.9-3.1-184.9l0,0
		c47.8-6.2,100.5-23.6,141.3-39.5c5,11.7,52.5,122.5,55.4,126.6c3,4.3,7.8,0.9,7.3-3.4c-0.5-4.1-48.5-119.8-51.8-127.6
		c34.2-13.9,57.8-25.7,59-26.6c3.6-2.7,12.7-66.2,14.5-85.2S557.9,914.9,537,909.5z"/>
	<g>
		<path class="st20" d="M332.1,1296.3c2.3,0.1,4.5-1.3,5.1-4.6c1.3-6.8-3.1-184.9-3.1-184.9l-8.7,0.9L332.1,1296.3z"/>
		<path class="st20" d="M535.4,1195.5c-1.5,0.8-3.4,0.5-4.8-1.6c-3-4.3-55.4-126.6-55.4-126.6l6-2.3L535.4,1195.5z"/>
		<path class="st20" d="M63.9,1179.6c1.8,1.1,4.3,1,6.3-1.5c4.2-5.1,80.3-148,80.3-148l-5.3-7.4L63.9,1179.6z"/>
	</g>
</g>
<g>
	<path class="st22" d="M520.3,799.1c-5.7-8.9,19.9-42.7,39.6-35c18.3,7.1,13,21.7,0.2,36C547.4,814.4,537,825.4,520.3,799.1z"/>
	<path class="st23" d="M321.2,879.5c0,0,96.1-42.6,113.4-42.6c17.2,0,29.3,4.8,30.5,34.2l-139.8,72L321.2,879.5z"/>
	<path class="st19" d="M345.4,989c35.4-0.6,30.6-40.2,54.2-50.2c13.9-5.9,53.1-19.9,87.2-29.3c-0.1-27.5-6.6-32.9-21.7-38.4
		c-15.1-5.4-111.3,41.1-127.7,50.2L311.3,959C320.2,976.7,331.4,989.2,345.4,989z"/>
	<path class="st24" d="M391,791.1c0,0,26.8,29,34.5,34c7.7,5,51.9,6.3,74-12.7c15.5-13.3,10.8-12,15.2-21.6
		c7.4-16.3,21.2-31.1,40.3-25.2s-4.4,30.1-16.5,43.3c-13.3,14.5-75.1,48-103.8,54.8c-28.7,6.8-43.5-14.3-67.8-50.9L391,791.1z"/>
	<path class="st24" d="M369.7,728.9c0,0,4.1-12.6,5.9-22.6c1.8-10,26.3-29.2,33.1-28.6c6.8,0.5,17.7,5.5,10.9,21.2
		c-6.8,15.6-34,19.8-34.9,48.1L369.7,728.9z"/>
	<path class="st25" d="M277,848.2c5.3,8.6,14,68.8,34.3,110.7c15.7-3.2,25.7-14.1,23.2-29.2c-12.7-80.4,14-96.6,24.2-109.5
		c8.2-10.3,12.7,9.4,16.3,8.8c18.1-3.3,28.3-16,28.1-29.9c-0.1-4.4-9.4-18.3-10-24.2c-3.9-40.5-35.7-60.5-64.1-61.5
		c-28.4-1-33.3-15.3-52.6-28s-51.2-20-56.8,6c-7.2,33.1-6.9,73.2-3.3,112.1C245.3,822.9,273.7,842.9,277,848.2z"/>
	<path class="st26" d="M279.9,687.9l8-8.4c0,0,21.8,22.3,39.9,22.3l6,13.3C333.9,715.1,297.3,719.9,279.9,687.9z"/>
	<path class="st26" d="M370.7,824.4c1.6,2.6,3,4.9,4.3,4.6c18.1-3.3,28.3-16,28.1-29.9c0-1.2-0.7-3-1.7-5.1
		C393.8,820.2,375.3,823.9,370.7,824.4z"/>
	<path class="st27" d="M364.2,590.8c0,0,12.3-5.3,6.7-25.9c-5.2-18.9-38.3-13.2-67.5-10.3c-27.3,2.7-49.3,2.4-56.6,40.5
		c-12.3,63.9,44.7,77.7,51.7,81.3C305.5,680,364.2,590.8,364.2,590.8z"/>
	<path class="st24" d="M293.9,685c0,0,2.8-5.9,4.6-8.6c1.8-2.7,15.2-15.2,14.2-29.1c-1.6-4.4-4.2,1.6-7.7,0
		c-2.6-1.2-3.8-3.2-3.2-11.6c1.3-16.8,9.8-9.6,12.5-9c2.7,0.6,4.4-29.5,24.1-35.2c19.7-5.7,27.9-3,30.3,9.2
		c4.9,24.8,0.1,86.7-22.3,83.9c-17.2-9-12-2.3-15.3,3.9c-3.3,6.2-5.8,13-5.8,13S315.3,702,293.9,685z"/>
	<path class="st28" d="M378.2,615.1l-8.1-2.6c0,0,0.1,1.3,0.2,3.4l5.7,1.7c0,0,3.1,0,2.2,6.8c-1.1,9.2-5.9,11.2-8.2,11.6
		c-0.1,1.1-0.2,2.1-0.3,3.1c0,0,9.4,0.9,11.1-15.1C381.8,615.1,378.2,615.1,378.2,615.1z"/>
	<path class="st29" d="M309.6,620.8c0,0,65.6-5.8,68.6-5.8s4,7-0.1,9.6c-2.7,1.7-63.8,2.1-63.8,2.1s-5.5-2.5-7.7-1.9
		C306.6,624.8,305.4,621.2,309.6,620.8z"/>
</g>
<polygon class="st30" points="510.4,61.7 510.4,151.7 1103.4,491.7 1103.4,408.3 "/>
<path class="st31" d="M662.9,197.4l-58.5-35c-3.1-1.8-5.2-7.4-4.8-12.3v0c0.5-4.9,3.4-7.5,6.5-5.6l58.5,35c3.1,1.8,5.2,7.4,4.8,12.3
	v0C668.9,196.7,666,199.2,662.9,197.4z M720.5,222.3L720.5,222.3c0.5-4.9-1.7-10.5-4.8-12.3l-28.5-17c-3.1-1.8-6,0.7-6.5,5.6l0,0
	c-0.5,4.9,1.7,10.5,4.8,12.3l28.5,17C717.1,229.8,720,227.2,720.5,222.3z M861.9,306.8L861.9,306.8c0.5-4.9-1.7-10.5-4.8-12.3
	l-25-15c-3.1-1.8-6,0.7-6.5,5.6l0,0c-0.5,4.9,1.7,10.5,4.8,12.3l25,15C858.5,314.3,861.4,311.8,861.9,306.8z M813.2,277.7
	L813.2,277.7c0.5-4.9-1.7-10.5-4.8-12.3l-67.2-40.2c-3.1-1.8-6,0.7-6.5,5.6l0,0c-0.5,4.9,1.7,10.5,4.8,12.3l67.2,40.2
	C809.9,285.2,812.8,282.7,813.2,277.7z M1038.8,422.1L1062,436c3.1,1.8,6-0.7,6.5-5.6l0,0c0.5-4.9-1.7-10.5-4.8-12.3l-23.2-13.9
	c-3.1-1.8-6,0.7-6.5,5.6l0,0C1033.6,414.8,1035.7,420.3,1038.8,422.1z M970.9,381.6l41.5,24.8c3.1,1.8,6-0.7,6.5-5.6l0,0
	c0.5-4.9-1.7-10.5-4.8-12.3l-41.5-24.8c-3.1-1.8-6,0.7-6.5,5.6l0,0C965.7,374.2,967.8,379.7,970.9,381.6z M877.2,325.6l67.2,40.2
	c3.1,1.8,6-0.7,6.5-5.6l0,0c0.5-4.9-1.7-10.5-4.8-12.3l-67.2-40.2c-3.1-1.8-6,0.7-6.5,5.6l0,0C872,318.2,874.2,323.8,877.2,325.6z"
	/>
<polygon class="st32" points="631.9,284.6 631.9,374.6 1224.9,714.6 1224.9,631.2 "/>
<path class="st31" d="M722.2,389.3l-58.5-35c-3.1-1.8-5.2-7.4-4.8-12.3l0,0c0.5-4.9,3.4-7.5,6.5-5.6l58.5,35
	c3.1,1.8,5.2,7.4,4.8,12.3l0,0C728.2,388.7,725.3,391.2,722.2,389.3z M779.8,414.3L779.8,414.3c0.5-4.9-1.7-10.5-4.8-12.3l-28.5-17
	c-3.1-1.8-6,0.7-6.5,5.6l0,0c-0.5,4.9,1.7,10.5,4.8,12.3l28.5,17C776.5,421.7,779.4,419.2,779.8,414.3z M921.3,498.8L921.3,498.8
	c0.5-4.9-1.7-10.5-4.8-12.3l-25-15c-3.1-1.8-6,0.7-6.5,5.6l0,0c-0.5,4.9,1.7,10.5,4.8,12.3l25,15
	C917.9,506.3,920.8,503.8,921.3,498.8z M872.6,469.7L872.6,469.7c0.5-4.9-1.7-10.5-4.8-12.3l-67.2-40.2c-3.1-1.8-6,0.7-6.5,5.6l0,0
	c-0.5,4.9,1.7,10.5,4.8,12.3l67.2,40.2C869.2,477.2,872.1,474.7,872.6,469.7z M1098.2,614.1l23.2,13.9c3.1,1.8,6-0.7,6.5-5.6l0,0
	c0.5-4.9-1.7-10.5-4.8-12.3l-23.2-13.9c-3.1-1.8-6,0.7-6.5,5.6l0,0C1092.9,606.7,1095.1,612.3,1098.2,614.1z M1030.3,573.5
	l41.5,24.8c3.1,1.8,6-0.7,6.5-5.6l0,0c0.5-4.9-1.7-10.5-4.8-12.3l-41.5-24.8c-3.1-1.8-6,0.7-6.5,5.6l0,0
	C1025,566.2,1027.2,571.7,1030.3,573.5z M936.6,517.6l67.2,40.2c3.1,1.8,6-0.7,6.5-5.6l0,0c0.5-4.9-1.7-10.5-4.8-12.3l-67.2-40.2
	c-3.1-1.8-6,0.7-6.5,5.6l0,0C931.4,510.2,933.5,515.7,936.6,517.6z"/>
<polygon class="st33" points="1103.4,491.7 1118.1,482.2 1118.1,400.1 1103.4,408.3 "/>
<polygon class="st34" points="510.4,61.7 1103.4,408.3 1118.1,400.1 526.2,55.8 "/>
<polygon class="st35" points="1224.9,714.6 1240.4,706.3 1240.4,623.3 1224.9,631.2 "/>
<polygon class="st36" points="631.9,284.6 1224.9,631.2 1240.4,623.3 645.5,280.4 "/>
<g class="st0">
	<path class="st37" d="M510.7,414l-118.2-65.3c-7.9-4.3-14.3-15.4-14.2-24.6l0.4-138.3c0-9.2,6.5-13.2,14.3-8.8l118.2,65.3
		c7.9,4.3,14.3,15.4,14.2,24.6l-0.4,138.3C525.1,414.4,518.6,418.3,510.7,414z"/>
	<path class="st38" d="M486.8,429.8l-118.2-65.3c-7.9-4.3-14.3-15.4-14.2-24.6l0.4-138.3c0-9.2,6.5-13.2,14.3-8.8L487.3,258
		c7.9,4.3,14.3,15.4,14.2,24.6L501.2,421C501.1,430.2,494.7,434.1,486.8,429.8z"/>
	<g class="st1">
		<path class="st39" d="M374.7,285l26.4,28l-0.6,12l-36.9-40.5l0.5-11.1l38.8,1.7l-0.6,12L374.7,285z"/>
		<path class="st39" d="M411.8,329.8l21.6-55.5l7.6,4.3L419.4,334L411.8,329.8z"/>
		<path class="st39" d="M477.7,342.4l-26.4-27.9l0.6-12l36.9,40.6l-0.5,11l-38.8-1.7l0.6-12L477.7,342.4z"/>
	</g>
</g>
<path class="st40" d="M1198.7,294.6l-118.2-65.3c-7.9-4.3-14.3-15.4-14.2-24.6l0.4-138.3c0-9.2,6.5-13.2,14.3-8.8l118.2,65.3
	c7.9,4.3,14.3,15.4,14.2,24.6l-0.4,138.3C1213,295,1206.6,298.9,1198.7,294.6z"/>
<path class="st41" d="M1174.8,310.4l-118.2-65.3c-7.9-4.3-14.3-15.4-14.2-24.6l0.4-138.3c0-9.2,6.5-13.2,14.3-8.8l118.2,65.3
	c7.9,4.3,14.3,15.4,14.2,24.6l-0.4,138.3C1189.1,310.8,1182.7,314.7,1174.8,310.4z"/>
<g class="st0">
	<path class="st10" d="M1084.8,119.2l9.3,4.3l-3,5.6c-4.2,7.8-7.4,16.6-9.5,26.4c-1.3,6.4-2.3,13.5-2.8,21.5
		c-0.8,12.6-0.2,24.8,1.7,36.5c1.1,7,3.3,16.2,6.5,27.8l-9.1-4.2l-2.7-7.5c-1.7-4.6-3.5-10.8-5.4-19.1c-3.2-14.6-4.4-28-3.7-40.4
		c0.7-11.4,3.1-21.7,7.3-31.2C1076,132.4,1079.9,125.8,1084.8,119.2z"/>
	<path class="st10" d="M1092.3,189.7l46.9,21.7l-1,16.3l-46.9-21.7L1092.3,189.7z M1094.2,160.9l46.9,21.7l-1,16.3l-46.9-21.7
		L1094.2,160.9z"/>
	<path class="st10" d="M1164.8,215.8c-0.8,12.4-3.6,23.9-8.4,34.8c-2.8,6.1-5.2,10.4-7.4,13.2l-3.5,4.6l-9.1-4.2
		c4.4-8.1,7.6-14.8,9.5-20.4c3.2-9.3,5.3-20.3,6.1-32.9c0.5-8.1,0.4-15.6,0-22.9c-0.8-11.1-2.7-22.3-5.8-33.4l-2.1-8l9.3,4.3
		c3.8,10.6,6.7,20.4,8.4,29C1164.5,192.6,1165.5,204.4,1164.8,215.8z"/>
</g>
<path class="st42" d="M999.1,192.2L922.8,150c-5.1-2.8-9.2-10-9.2-15.9l0.2-89.3c0-5.9,4.2-8.5,9.3-5.7l76.3,42.2
	c5.1,2.8,9.2,10,9.2,15.9l-0.2,89.3C1008.4,192.4,1004.2,195,999.1,192.2z"/>
<path class="st43" d="M983.7,202.4l-76.3-42.2c-5.1-2.8-9.2-10-9.2-15.9l0.2-89.3c0-5.9,4.2-8.5,9.3-5.7L984,91.4
	c5.1,2.8,9.2,10,9.2,15.9l-0.2,89.3C992.9,202.6,988.8,205.2,983.7,202.4z"/>
<g class="st0">
	<path class="st10" d="M939.8,88.8l13.9,7.8l-0.2,25.1l21.7,12.2l-0.2,16.1l-21.7-12.2l-0.2,25.3l-13.9-7.8l0.2-25.3l-21.7-12.2
		l0.2-16.1l21.7,12.2L939.8,88.8z"/>
</g>
<g class="st0">
	<path class="st6" d="M633.9,719.3v46.1c0,9,13.3,16.3,29.7,16.3c16.4,0,29.7-7.3,29.7-16.3v-46.1H633.9z"/>
	<ellipse class="st11" cx="663.6" cy="719.3" rx="29.7" ry="16.3"/>
	<path class="st12" d="M663.6,733.7c11.2,0,20.9-3.6,25.7-8.9c-2.6-7.4-13.1-12.9-25.7-12.9s-23.1,5.5-25.7,12.9
		C642.7,730.1,652.4,733.7,663.6,733.7z"/>
	<path class="st11" d="M681.5,735.7c-1.8,0-3.3,1.5-3.3,3.3c0,0.8,0,1.4,1.8,2.3c4.8,2.2,10.9,4.7,10.7,7.8l-0.1,21.7
		c0,2.3-7.1-3.2-9.2-4.3c-1.6-0.8-3.3,1.5-3.3,3.3c0,2.9,11,7.5,11,7.5c3.7,1.1,6.4-1.4,6.4-5l0.1-25.8
		C695.7,742.8,682.6,735.7,681.5,735.7z"/>
</g>
<g class="st0">
	<polygon class="st44" points="671.9,896 606.4,863.2 690,811.1 755.5,843.9 	"/>
	<polygon class="st45" points="671.9,893.5 606.4,860.7 690,808.6 755.5,841.4 	"/>
	<polygon class="st46" points="671.9,890.3 606.4,857.5 690,805.4 755.5,838.2 	"/>
	<polygon class="st47" points="671.9,887.2 606.4,854.4 690,802.3 755.5,835.1 	"/>
	<polygon class="st10" points="671.9,885.1 606.4,852.3 690,800.2 755.5,833 	"/>
</g>
</svg>
